<svg width="741" height="406" viewBox="0 0 741 406" fill="none" xmlns="http://www.w3.org/2000/svg">
<path d="M603.185 93.2913C602.041 93.2913 600.897 93.2619 599.783 93.1445C599.461 93.1151 599.255 92.8508 599.285 92.5572C599.285 92.2342 599.578 91.9992 599.871 92.0286C602.07 92.2342 604.358 92.2342 606.528 92.0286C606.85 91.9992 607.114 92.2342 607.144 92.5278C607.173 92.8508 606.938 93.1151 606.645 93.1445C605.501 93.2619 604.328 93.2913 603.185 93.2913ZM593.185 91.9112C593.126 91.9112 593.068 91.9112 593.009 91.9112C590.81 91.2651 588.669 90.4429 586.616 89.4152C586.323 89.2683 586.235 88.9453 586.352 88.6811C586.499 88.3874 586.822 88.2699 587.115 88.4168C589.109 89.4152 591.191 90.208 593.332 90.8247C593.625 90.9128 593.801 91.2064 593.713 91.5C593.654 91.7643 593.42 91.9112 593.185 91.9112ZM613.243 91.9112C613.008 91.9112 612.774 91.735 612.715 91.5C612.627 91.2064 612.803 90.8834 613.096 90.7953C615.237 90.208 617.319 89.3858 619.313 88.3874C619.577 88.2699 619.929 88.358 620.046 88.6517C620.193 88.916 620.076 89.2683 619.812 89.3858C617.759 90.4136 615.589 91.2651 613.39 91.8818C613.351 91.9014 613.302 91.9112 613.243 91.9112ZM581.103 85.9208C580.986 85.9208 580.869 85.862 580.781 85.8033C578.933 84.4232 577.232 82.8669 575.678 81.1637C575.473 80.9288 575.502 80.5764 575.708 80.3709C575.942 80.1653 576.294 80.1947 576.499 80.4002C577.995 82.0446 579.666 83.5716 581.426 84.893C581.69 85.0986 581.748 85.4509 581.543 85.6859C581.426 85.8327 581.279 85.9208 581.103 85.9208ZM625.296 85.8914C625.12 85.8914 624.973 85.8033 624.856 85.6565C624.68 85.4216 624.709 85.0692 624.973 84.8637C626.732 83.5422 628.404 82.0153 629.9 80.3709C630.105 80.1359 630.457 80.1359 630.691 80.3415C630.897 80.5471 630.926 80.8994 630.721 81.1343C629.166 82.8081 627.466 84.3938 625.647 85.7739C625.53 85.8327 625.413 85.8914 625.296 85.8914ZM572.013 75.9368C571.837 75.9368 571.631 75.8487 571.543 75.6725C570.312 73.7345 569.285 71.6496 568.464 69.5353C568.347 69.2417 568.494 68.9187 568.787 68.8012C569.08 68.6838 569.403 68.8306 569.491 69.1242C570.312 71.1798 571.309 73.2059 572.482 75.0852C572.658 75.3495 572.57 75.7019 572.306 75.8487C572.208 75.9075 572.11 75.9368 572.013 75.9368ZM634.386 75.9075C634.288 75.9075 634.191 75.8781 634.093 75.8194C633.829 75.6432 633.741 75.3202 633.917 75.0559C635.09 73.1472 636.087 71.1504 636.879 69.0655C636.996 68.8012 637.319 68.6544 637.612 68.7425C637.905 68.8599 638.022 69.183 637.934 69.4766C637.084 71.6202 636.058 73.6757 634.855 75.6432C634.738 75.8194 634.562 75.9075 634.386 75.9075ZM567.115 63.3688C566.851 63.3688 566.617 63.1926 566.588 62.9283C566.148 60.6672 565.942 58.3768 565.942 56.057C565.942 55.7633 566.177 55.4991 566.5 55.4991C566.793 55.4991 567.057 55.7633 567.057 56.057C567.057 58.2887 567.262 60.5204 567.673 62.7227C567.731 63.0164 567.526 63.31 567.233 63.3688C567.194 63.3688 567.154 63.3688 567.115 63.3688ZM639.254 63.31C639.215 63.31 639.176 63.31 639.137 63.31C638.844 63.2513 638.638 62.9577 638.697 62.664C639.107 60.491 639.313 58.23 639.313 55.9983C639.313 55.7046 639.547 55.411 639.87 55.411C640.163 55.411 640.427 55.5872 640.427 55.9102V55.9689C640.427 58.3181 640.222 60.6183 639.811 62.8696C639.753 63.1339 639.518 63.31 639.254 63.31ZM567.115 49.8611C567.076 49.8611 567.037 49.8611 566.998 49.8611C566.705 49.8023 566.5 49.5087 566.558 49.215C566.969 46.954 567.585 44.7223 568.435 42.5786C568.523 42.3144 568.846 42.1675 569.139 42.285C569.432 42.3731 569.579 42.6961 569.461 42.9898C568.67 45.0746 568.054 47.2182 567.643 49.4206C567.614 49.6849 567.379 49.8611 567.115 49.8611ZM639.225 49.7142C638.961 49.7142 638.726 49.5381 638.668 49.2738C638.257 47.0714 637.641 44.9278 636.849 42.8429C636.732 42.5493 636.879 42.2263 637.172 42.1088C637.436 42.0207 637.759 42.1382 637.876 42.4318C638.726 44.5754 639.342 46.8071 639.782 49.0389C639.841 49.3619 639.635 49.6555 639.342 49.7142C639.303 49.7142 639.264 49.7142 639.225 49.7142ZM571.954 37.293C571.856 37.293 571.758 37.2637 571.661 37.2049C571.397 37.0287 571.309 36.7057 571.485 36.4414C572.687 34.474 574.065 32.624 575.62 30.9209C575.825 30.7153 576.177 30.686 576.411 30.8915C576.617 31.0971 576.646 31.4495 576.441 31.6844C574.945 33.3288 573.596 35.12 572.423 37.0287C572.335 37.1756 572.13 37.293 571.954 37.293ZM634.328 37.1462C634.152 37.1462 633.946 37.0581 633.858 36.8819C632.685 35.0026 631.307 33.2113 629.812 31.5669C629.606 31.332 629.636 30.9796 629.841 30.7741C630.075 30.5685 630.427 30.5979 630.633 30.8034C632.187 32.5066 633.594 34.3566 634.797 36.2946C634.973 36.5589 634.885 36.9113 634.621 37.0581C634.523 37.1168 634.425 37.1462 634.328 37.1462ZM581.015 27.2797C580.839 27.2797 580.693 27.221 580.575 27.0741C580.399 26.8392 580.429 26.4868 580.693 26.2813C582.511 24.9012 584.476 23.6678 586.499 22.6401C586.792 22.5226 587.115 22.6107 587.261 22.9044C587.408 23.1686 587.291 23.521 587.027 23.6385C585.033 24.6369 583.127 25.8408 581.367 27.1916C581.25 27.2503 581.133 27.2797 581.015 27.2797ZM593.068 21.26C592.833 21.26 592.599 21.0838 592.54 20.8488C592.452 20.5552 592.628 20.2322 592.921 20.1441C595.12 19.5274 597.378 19.087 599.666 18.8814C599.959 18.8521 600.252 19.087 600.282 19.3806C600.311 19.7036 600.076 19.9679 599.783 19.9973C597.554 20.2028 595.355 20.6139 593.214 21.2306C593.175 21.2502 593.126 21.26 593.068 21.26Z" fill="#1A60B5"/>
<path d="M113.521 91.9112C112.377 91.9112 111.234 91.8524 110.119 91.7643C109.826 91.735 109.592 91.4707 109.621 91.1477C109.65 90.854 109.914 90.6191 110.207 90.6485C112.436 90.854 114.694 90.854 116.893 90.6485C117.187 90.6191 117.451 90.8247 117.48 91.1477C117.509 91.4413 117.304 91.735 116.981 91.7643C115.838 91.8524 114.694 91.9112 113.521 91.9112ZM103.521 90.531C103.463 90.531 103.414 90.5212 103.375 90.5017C101.175 89.885 99.0054 89.0628 96.9527 88.035C96.6888 87.8882 96.5715 87.5652 96.6888 87.2716C96.8354 87.0073 97.1873 86.8898 97.4512 87.0366C99.4453 88.0057 101.527 88.8279 103.668 89.4445C103.961 89.5033 104.137 89.8263 104.049 90.1199C103.991 90.3548 103.756 90.531 103.521 90.531ZM123.58 90.5017C123.345 90.5017 123.11 90.3548 123.052 90.1199C122.964 89.8263 123.14 89.5033 123.433 89.4152C125.574 88.7985 127.656 88.0057 129.65 87.0073C129.914 86.8605 130.266 86.9779 130.383 87.2422C130.529 87.5358 130.412 87.8588 130.148 88.0057C128.095 89.0334 125.955 89.8556 123.755 90.5017C123.697 90.5017 123.638 90.5017 123.58 90.5017ZM91.4397 84.5113C91.3224 84.5113 91.2051 84.4819 91.1171 84.3938C89.299 83.0137 87.5688 81.4574 86.0439 79.7836C85.8093 79.5487 85.8386 79.1963 86.0732 78.9907C86.3078 78.7852 86.6597 78.7852 86.865 79.0201C88.3606 80.6645 90.0028 82.1621 91.7916 83.5129C92.0262 83.6891 92.0848 84.0414 91.8795 84.3057C91.7916 84.4526 91.6156 84.5113 91.4397 84.5113ZM135.661 84.4819C135.485 84.4819 135.309 84.4232 135.192 84.2764C135.016 84.0121 135.075 83.6597 135.309 83.4835C137.069 82.1328 138.74 80.6352 140.236 78.9907C140.441 78.7558 140.793 78.7265 141.028 78.932C141.262 79.1669 141.262 79.5193 141.057 79.7249C139.503 81.428 137.802 82.9843 135.984 84.3645C135.896 84.4526 135.779 84.4819 135.661 84.4819ZM82.349 74.5567C82.1731 74.5567 81.9971 74.4686 81.8798 74.2924C80.6775 72.3543 79.6218 70.2695 78.8007 68.1258C78.6834 67.8616 78.83 67.5385 79.1233 67.4211C79.4165 67.3036 79.7391 67.4505 79.8564 67.7441C80.6482 69.7996 81.6452 71.7964 82.8182 73.7051C82.9942 73.9694 82.9062 74.3218 82.6423 74.4686C82.5445 74.5273 82.4468 74.5567 82.349 74.5567ZM144.723 74.498C144.625 74.498 144.527 74.4784 144.429 74.4392C144.165 74.263 144.077 73.9107 144.253 73.6464C145.426 71.7671 146.423 69.7409 147.215 67.6854C147.332 67.3917 147.655 67.2449 147.948 67.3624C148.242 67.4798 148.388 67.8028 148.271 68.0965C147.45 70.2107 146.423 72.2956 145.192 74.2337C145.104 74.4099 144.899 74.498 144.723 74.498ZM77.4811 61.9886C77.2172 61.9886 76.9826 61.7831 76.9239 61.5188C76.5134 59.2871 76.2788 56.9673 76.2788 54.6769C76.2788 54.3538 76.5427 54.1189 76.836 54.1189C77.1585 54.1189 77.3931 54.3538 77.3931 54.6769C77.3931 56.9086 77.5984 59.1403 78.009 61.3133C78.0676 61.6069 77.8623 61.9006 77.5691 61.9593C77.53 61.9789 77.5007 61.9886 77.4811 61.9886ZM149.59 61.9299C149.551 61.9299 149.522 61.9299 149.503 61.9299C149.18 61.8712 148.975 61.5775 149.033 61.2545C149.444 59.0815 149.649 56.8498 149.649 54.6181C149.649 54.3245 149.913 54.0015 150.206 54.0015C150.529 54.0015 150.763 54.207 150.763 54.5007V54.5594C150.763 56.9281 150.558 59.2284 150.148 61.4601C150.089 61.7244 149.854 61.9299 149.59 61.9299ZM77.4518 48.4809C77.4127 48.4809 77.3736 48.4809 77.3345 48.4809C77.0413 48.4222 76.836 48.1286 76.8946 47.8349C77.3052 45.5738 77.9503 43.3421 78.7714 41.1985C78.8887 40.9049 79.2113 40.758 79.4752 40.8755C79.7684 40.993 79.9151 41.316 79.7978 41.6096C79.006 43.6651 78.3902 45.8381 78.009 48.0405C77.9503 48.3047 77.7157 48.4809 77.4518 48.4809ZM149.561 48.3341C149.297 48.3341 149.063 48.1286 149.033 47.8643C148.623 45.6913 148.007 43.5183 147.186 41.4628C147.069 41.1691 147.215 40.8461 147.508 40.7287C147.802 40.6112 148.124 40.758 148.242 41.0517C149.063 43.1953 149.708 45.3976 150.118 47.6587C150.177 47.9524 149.972 48.246 149.678 48.3047C149.639 48.3243 149.6 48.3341 149.561 48.3341ZM82.2904 35.8835C82.1926 35.8835 82.0949 35.8542 81.9971 35.7954C81.7332 35.6486 81.6745 35.2962 81.8212 35.0319C83.0235 33.0939 84.4311 31.2439 85.9559 29.5408C86.1612 29.3059 86.5131 29.3059 86.7477 29.5114C86.9823 29.717 86.9823 30.0693 86.777 30.3042C85.2815 31.9487 83.9325 33.7399 82.7596 35.6192C82.6716 35.7954 82.4956 35.8835 82.2904 35.8835ZM144.664 35.7661C144.488 35.7661 144.312 35.6486 144.195 35.5018C143.022 33.5931 141.673 31.8312 140.177 30.1868C139.943 29.9519 139.972 29.5995 140.207 29.3939C140.412 29.1884 140.764 29.1884 140.998 29.4233C142.523 31.1265 143.931 32.9471 145.133 34.9145C145.309 35.1494 145.221 35.5018 144.957 35.678C144.879 35.7367 144.781 35.7661 144.664 35.7661ZM91.3517 25.8996C91.2051 25.8996 91.0291 25.8115 90.9118 25.694C90.7359 25.4297 90.7945 25.0774 91.0291 24.9012C92.8472 23.521 94.812 22.2877 96.8647 21.26C97.1286 21.1131 97.4805 21.2306 97.5978 21.4949C97.7445 21.7885 97.6272 22.1115 97.3632 22.2584C95.3692 23.2567 93.4631 24.4313 91.7036 25.7821C91.5863 25.8702 91.469 25.8996 91.3517 25.8996ZM103.404 19.8505C103.17 19.8505 102.935 19.7036 102.876 19.4393C102.788 19.1457 102.964 18.8521 103.258 18.764C105.457 18.1179 107.715 17.7068 110.002 17.5013C110.325 17.4719 110.589 17.6775 110.618 18.0005C110.647 18.2941 110.413 18.5878 110.119 18.5878C107.891 18.8227 105.691 19.2338 103.58 19.8211C103.521 19.8407 103.463 19.8505 103.404 19.8505Z" fill="#1A60B5"/>
<path fill-rule="evenodd" clip-rule="evenodd" d="M668.403 151.962H637.583V146.999L652.978 138.953L668.403 146.999V151.962ZM637.846 151.697H668.11V147.205L652.978 139.276L637.846 147.205V151.697Z" fill="#1A60B5"/>
<path fill-rule="evenodd" clip-rule="evenodd" d="M666.614 150.2H639.342V148.086L652.978 140.95L666.614 148.086V150.2ZM639.635 149.936H666.35V148.262L652.978 141.273L639.635 148.262V149.936Z" fill="#1A60B5"/>
<path fill-rule="evenodd" clip-rule="evenodd" d="M645.412 154.751H639.518V151.727H645.412V154.751ZM639.811 154.487H645.119V152.021H639.811V154.487Z" fill="#1A60B5"/>
<path fill-rule="evenodd" clip-rule="evenodd" d="M644.21 167.437H640.691V154.458H644.21V167.437ZM640.984 167.173H643.946V154.751H640.984V167.173Z" fill="#1A60B5"/>
<path fill-rule="evenodd" clip-rule="evenodd" d="M667.289 170.344H638.375V167.143H667.289V170.344ZM638.638 170.08H666.995V167.437H638.638V170.08Z" fill="#1A60B5"/>
<path fill-rule="evenodd" clip-rule="evenodd" d="M666.321 154.751H660.456V151.727H666.321V154.751ZM660.72 154.487H666.057V152.021H660.72V154.487Z" fill="#1A60B5"/>
<path fill-rule="evenodd" clip-rule="evenodd" d="M665.148 167.437H661.629V154.458H665.148V167.437ZM661.922 167.173H664.855V154.751H661.922V167.173Z" fill="#1A60B5"/>
<path fill-rule="evenodd" clip-rule="evenodd" d="M653.359 165.558H652.215V164.119C651.424 164.06 650.603 163.825 650.104 163.473L650.016 163.414L650.456 162.181L650.603 162.298C651.16 162.65 651.864 162.885 652.567 162.885C653.476 162.885 654.092 162.357 654.092 161.623C654.092 160.947 653.652 160.507 652.597 160.066C651.336 159.567 650.163 158.921 650.163 157.482C650.163 156.278 650.984 155.339 652.303 155.074V153.636H653.447V155.016C654.122 155.045 654.708 155.221 655.236 155.515L655.324 155.574L654.884 156.778L654.737 156.689C654.503 156.572 653.916 156.22 653.007 156.22C652.01 156.22 651.658 156.807 651.658 157.306C651.658 157.923 652.039 158.275 653.33 158.804C654.943 159.45 655.617 160.272 655.617 161.535C655.617 162.562 654.913 163.737 653.359 164.06V165.558ZM652.479 165.264H653.095V163.825L653.212 163.796C654.679 163.561 655.324 162.474 655.324 161.535C655.324 160.389 654.708 159.655 653.212 159.068C651.981 158.539 651.394 158.158 651.394 157.306C651.394 156.631 651.893 155.955 653.007 155.955C653.858 155.955 654.415 156.22 654.737 156.366L654.972 155.691C654.503 155.456 653.946 155.309 653.3 155.28H653.183V153.9H652.567V155.309L652.45 155.339C651.248 155.544 650.456 156.366 650.456 157.482C650.456 158.51 651.072 159.156 652.685 159.802C653.887 160.272 654.385 160.83 654.385 161.623C654.385 162.533 653.623 163.15 652.567 163.15C651.864 163.15 651.16 162.944 650.573 162.621L650.339 163.296C650.837 163.62 651.629 163.825 652.333 163.825H652.479V165.264Z" fill="#1A60B5"/>
<path d="M334.101 18.8521V17.8243C333.515 17.8243 332.899 17.6188 332.547 17.3838L332.781 16.6791C333.163 16.9434 333.691 17.1196 334.248 17.1196C334.981 17.1196 335.479 16.7085 335.479 16.1212C335.479 15.5632 335.069 15.2109 334.306 14.9172C333.28 14.5061 332.635 14.0363 332.635 13.126C332.635 12.2744 333.221 11.6577 334.16 11.4816V10.4538H334.805V11.4522C335.421 11.4816 335.831 11.6284 336.124 11.8046L335.89 12.48C335.655 12.3625 335.245 12.1276 334.6 12.1276C333.808 12.1276 333.515 12.5974 333.515 13.0085C333.515 13.5371 333.896 13.8014 334.776 14.1831C335.831 14.6236 336.359 15.1521 336.359 16.0624C336.359 16.8553 335.802 17.6188 334.746 17.7949V18.8521H334.101Z" fill="#1A60B5"/>
<path fill-rule="evenodd" clip-rule="evenodd" d="M334.424 20.8489C330.993 20.8489 328.178 18.0298 328.178 14.5942C328.178 11.1292 330.993 8.33954 334.424 8.33954C337.884 8.33954 340.67 11.1292 340.67 14.5942C340.67 18.0298 337.884 20.8489 334.424 20.8489ZM334.424 8.60382C331.14 8.60382 328.471 11.276 328.471 14.5942C328.471 17.883 331.14 20.5552 334.424 20.5552C337.708 20.5552 340.406 17.883 340.406 14.5942C340.406 11.276 337.708 8.60382 334.424 8.60382Z" fill="#1A60B5"/>
<path fill-rule="evenodd" clip-rule="evenodd" d="M525.328 14.7117H501.633V1.90869H525.328V14.7117ZM501.897 14.4474H525.034V2.20234H501.897V14.4474Z" fill="#1A60B5"/>
<path fill-rule="evenodd" clip-rule="evenodd" d="M520.958 12.9204H506.002V12.8029C506.002 11.4228 504.888 10.3363 503.539 10.3363H503.393V6.284H503.539C504.888 6.284 506.002 5.19751 506.002 3.84674V3.69992H520.958V3.84674C520.958 5.19751 522.043 6.284 523.421 6.284H523.539V10.3363H523.421C522.043 10.3363 520.958 11.4228 520.958 12.8029V12.9204ZM506.266 12.6268H520.665C520.753 11.2173 521.867 10.1014 523.275 10.0427V6.54828C521.867 6.48956 520.753 5.34434 520.665 3.9642H506.266C506.208 5.34434 505.093 6.48956 503.686 6.54828V10.0427C505.093 10.1014 506.208 11.2173 506.266 12.6268Z" fill="#1A60B5"/>
<path fill-rule="evenodd" clip-rule="evenodd" d="M515.152 10.4244H511.809C510.636 10.4244 509.698 9.48476 509.698 8.31017C509.698 7.16495 510.636 6.19592 511.809 6.19592H515.152C516.325 6.19592 517.264 7.16495 517.264 8.31017C517.264 9.48476 516.325 10.4244 515.152 10.4244ZM511.809 6.48957C510.783 6.48957 509.962 7.31178 509.962 8.31017C509.962 9.30857 510.783 10.1308 511.809 10.1308H515.152C516.178 10.1308 516.97 9.30857 516.97 8.31017C516.97 7.31178 516.178 6.48957 515.152 6.48957H511.809Z" fill="#1A60B5"/>
<path fill-rule="evenodd" clip-rule="evenodd" d="M506.677 9.77841C505.885 9.77841 505.24 9.13239 505.24 8.31018C505.24 7.51734 505.885 6.84195 506.677 6.84195C507.498 6.84195 508.143 7.51734 508.143 8.31018C508.143 9.13239 507.498 9.77841 506.677 9.77841ZM506.677 7.1356C506.032 7.1356 505.504 7.66416 505.504 8.31018C505.504 8.9562 506.032 9.48476 506.677 9.48476C507.352 9.48476 507.879 8.9562 507.879 8.31018C507.879 7.66416 507.352 7.1356 506.677 7.1356Z" fill="#1A60B5"/>
<path fill-rule="evenodd" clip-rule="evenodd" d="M520.166 9.77841C519.375 9.77841 518.7 9.13239 518.7 8.31018C518.7 7.51734 519.375 6.84195 520.166 6.84195C520.958 6.84195 521.633 7.51734 521.633 8.31018C521.633 9.13239 520.958 9.77841 520.166 9.77841ZM520.166 7.1356C519.521 7.1356 518.993 7.66416 518.993 8.31018C518.993 8.9562 519.521 9.48476 520.166 9.48476C520.812 9.48476 521.339 8.9562 521.339 8.31018C521.339 7.66416 520.812 7.1356 520.166 7.1356Z" fill="#1A60B5"/>
<path fill-rule="evenodd" clip-rule="evenodd" d="M630.017 27.8376H625.882V25.6353C625.032 25.7527 624.181 25.7821 623.331 25.7821C621.161 25.7821 619.049 25.4297 617.085 24.725V27.8376H612.95V22.552C611.102 21.1719 609.783 19.4687 609.108 17.5894C607.935 17.5307 606.41 17.2664 605.501 16.4148L605.179 16.1212L605.619 16.1799C605.648 16.1799 607.202 16.4148 608.58 14.8291C608.58 14.7704 608.58 14.7019 608.58 14.6236C608.58 8.45699 615.208 3.46501 623.331 3.46501C626.117 3.46501 628.785 4.02294 631.131 5.13879C634.21 2.20233 634.327 2.29043 634.445 2.40789C634.533 2.46662 634.65 2.55471 634.533 7.34114C636.82 9.36729 638.11 11.9514 638.11 14.6236L640.955 14.8291V14.9759C640.896 15.3675 640.847 15.7492 640.808 16.1212C640.574 18.4116 640.368 20.379 636.234 20.379C636.155 20.379 636.077 20.379 635.999 20.379C634.562 22.1996 632.48 23.6385 630.017 24.5781V27.8376ZM626.175 27.5733H629.723V24.4313L629.811 24.3726C632.333 23.4329 634.386 21.9941 635.823 20.1735L635.852 20.1147H635.94C640.134 20.2028 640.28 18.4997 640.544 16.1212C640.564 15.7884 640.593 15.4458 640.632 15.0934L637.817 14.8878V14.6529C637.817 12.0395 636.556 9.48475 634.298 7.51732L634.239 7.48796V7.39986C634.327 4.52213 634.298 3.142 634.269 2.70153C633.946 2.93645 633.037 3.72929 631.248 5.43244L631.19 5.49117L631.102 5.43244C628.785 4.34595 626.087 3.75866 623.331 3.75866C615.354 3.75866 608.874 8.63318 608.874 14.6529C608.874 14.7312 608.874 14.8095 608.874 14.8878V14.9466L608.844 15.0053C607.789 16.2092 606.616 16.4735 606 16.5029C606.909 17.0902 608.228 17.2957 609.226 17.3251H609.314L609.343 17.4132C609.988 19.2925 611.337 21.025 613.155 22.3758L613.214 22.4345V27.5733H616.791V24.3432L616.997 24.4313C618.961 25.1654 621.102 25.5472 623.331 25.5472C624.24 25.5472 625.119 25.4591 625.999 25.3416H626.175V27.5733Z" fill="#1A60B5"/>
<path fill-rule="evenodd" clip-rule="evenodd" d="M628.492 7.48797H618.521C617.935 7.48797 617.466 7.01813 617.466 6.43084C617.466 5.84355 617.935 5.37372 618.521 5.37372H628.492C629.078 5.37372 629.577 5.84355 629.577 6.43084C629.577 7.01813 629.078 7.48797 628.492 7.48797ZM618.521 5.66736C618.082 5.66736 617.73 6.01974 617.73 6.43084C617.73 6.87131 618.082 7.22369 618.521 7.22369H628.492C628.932 7.22369 629.284 6.87131 629.284 6.43084C629.284 6.01974 628.932 5.66736 628.492 5.66736H618.521Z" fill="#1A60B5"/>
<path fill-rule="evenodd" clip-rule="evenodd" d="M635.295 14.3886C634.797 14.3886 634.386 13.9775 634.386 13.4783C634.386 12.9791 634.797 12.568 635.295 12.568C635.794 12.568 636.204 12.9791 636.204 13.4783C636.204 13.9775 635.794 14.3886 635.295 14.3886ZM635.295 12.8617C634.943 12.8617 634.679 13.126 634.679 13.4783C634.679 13.8307 634.943 14.095 635.295 14.095C635.647 14.095 635.911 13.8307 635.911 13.4783C635.911 13.126 635.647 12.8617 635.295 12.8617Z" fill="#1A60B5"/>
<path fill-rule="evenodd" clip-rule="evenodd" d="M17.5418 364.268L9.2429 358.718C9.06695 358.6 8.97898 358.395 9.03763 358.189C9.1256 357.984 9.30155 357.837 9.50682 357.837H11.2956V339.631H23.9346V357.837H25.694C25.8993 357.837 26.0753 357.984 26.1632 358.189C26.2219 358.395 26.1339 358.6 25.958 358.718L17.5418 364.268ZM9.50682 358.131C9.38952 358.131 9.33087 358.219 9.30155 358.277C9.30155 358.336 9.30155 358.454 9.38952 358.512L17.5418 363.945L25.8113 358.512C25.8993 358.454 25.8993 358.365 25.87 358.277C25.87 358.219 25.8113 358.131 25.694 358.131H23.6413V339.925H11.5595V358.131H9.50682Z" fill="#B6DDF0"/>
<path fill-rule="evenodd" clip-rule="evenodd" d="M18.1871 358.454H16.9261V356.868C16.0757 356.839 15.1666 356.545 14.6095 356.163L14.5215 356.104L14.9907 354.783L15.1373 354.9C15.7531 355.312 16.5449 355.546 17.3073 355.546C18.3044 355.546 19.0082 354.959 19.0082 354.166C19.0082 353.432 18.539 352.933 17.3367 352.434C15.9584 351.905 14.6974 351.201 14.6974 349.644C14.6974 348.293 15.6065 347.295 17.0434 347.001V345.416H18.275V346.943C19.0375 346.972 19.6533 347.148 20.2398 347.501L20.3278 347.559L19.8293 348.851L19.7119 348.763C19.4187 348.616 18.8029 348.235 17.8058 348.235C16.7208 348.235 16.3103 348.881 16.3103 349.439C16.3103 350.114 16.7208 350.496 18.1577 351.083C19.8879 351.788 20.621 352.669 20.621 354.049C20.621 355.194 19.8879 356.486 18.1871 356.809V358.454ZM17.2194 358.16H17.8938V356.574L18.0111 356.545C19.624 356.281 20.3571 355.106 20.3571 354.049C20.3571 352.816 19.6826 352.023 18.0404 351.347C16.6915 350.789 16.0464 350.349 16.0464 349.439C16.0464 348.705 16.5742 347.97 17.8058 347.97C18.7442 347.97 19.3601 348.264 19.6826 348.44L19.9759 347.677C19.448 347.383 18.8322 347.236 18.1284 347.207H18.0111V345.709H17.3073V347.266H17.19C15.8411 347.501 14.9907 348.411 14.9907 349.644C14.9907 350.966 15.9584 351.612 17.454 352.199C18.7442 352.727 19.3014 353.315 19.3014 354.166C19.3014 355.135 18.4803 355.84 17.3073 355.84C16.5449 355.84 15.7824 355.605 15.1373 355.223L14.8734 356.016C15.4012 356.339 16.281 356.604 17.0727 356.604H17.2194V358.16Z" fill="#B6DDF0"/>
<path fill-rule="evenodd" clip-rule="evenodd" d="M439.934 20.8488H437.031V11.599H439.934V20.8488ZM437.295 20.5552H439.641V11.8633H437.295V20.5552Z" fill="#1A60B5"/>
<path fill-rule="evenodd" clip-rule="evenodd" d="M435.448 20.8488H432.544V13.8601H435.448V20.8488ZM432.838 20.5552H435.184V14.1244H432.838V20.5552Z" fill="#1A60B5"/>
<path fill-rule="evenodd" clip-rule="evenodd" d="M444.392 20.8489H441.489V8.28082H444.392V20.8489ZM441.753 20.5552H444.099V8.57447H441.753V20.5552Z" fill="#1A60B5"/>
<path fill-rule="evenodd" clip-rule="evenodd" d="M448.849 20.8489H445.946V5.57928H448.849V20.8489ZM446.239 20.5552H448.585V5.87293H446.239V20.5552Z" fill="#1A60B5"/>
<path d="M428.175 11.9808C428.117 11.9808 428.087 11.9514 428.058 11.922C427.999 11.8339 428.029 11.7459 428.117 11.7165L448.937 0.411117C448.996 0.381752 449.084 0.411118 449.113 0.469847C449.142 0.557941 449.113 0.616669 449.054 0.675399L428.234 11.9514C428.214 11.971 428.195 11.9808 428.175 11.9808Z" fill="#1A60B5"/>
<path d="M448.585 2.64281C448.585 2.64281 448.575 2.63303 448.556 2.61345C448.468 2.58408 448.439 2.52536 448.468 2.43726L449.377 0.293646H446.972C446.884 0.293646 446.826 0.234917 446.826 0.146823C446.826 0.0587292 446.884 0 446.972 0H449.582C449.621 0 449.66 0.0195777 449.7 0.0587305C449.719 0.0978833 449.719 0.146824 449.7 0.205553L448.732 2.55472C448.702 2.61345 448.644 2.64281 448.585 2.64281Z" fill="#1A60B5"/>
<path fill-rule="evenodd" clip-rule="evenodd" d="M133.022 26.0757H130.148V16.8259H133.022V26.0757ZM130.412 25.8115H132.758V17.1195H130.412V25.8115Z" fill="#1A60B5"/>
<path fill-rule="evenodd" clip-rule="evenodd" d="M128.565 26.0757H125.662V13.5958H128.565V26.0757ZM125.955 25.8115H128.301V13.8601H125.955V25.8115Z" fill="#1A60B5"/>
<path fill-rule="evenodd" clip-rule="evenodd" d="M124.108 26.0758H121.205V10.2189H124.108V26.0758ZM121.498 25.7821H123.814V10.4538H121.498V25.7821Z" fill="#1A60B5"/>
<path fill-rule="evenodd" clip-rule="evenodd" d="M137.509 26.0758H134.606V13.5371H137.509V26.0758ZM134.87 25.7821H137.216V13.772H134.87V25.7821Z" fill="#1A60B5"/>
<path fill-rule="evenodd" clip-rule="evenodd" d="M141.967 26.0758H139.063V10.8355H141.967V26.0758ZM139.357 25.7821H141.673V11.0998H139.357V25.7821Z" fill="#1A60B5"/>
<path d="M132.143 11.3347C132.143 11.3347 132.133 11.3347 132.113 11.3347L122.084 8.45701C121.996 8.42764 121.967 8.36891 121.996 8.28082C121.996 8.22209 122.084 8.16337 122.172 8.19273L132.143 11.0411L142.025 5.66737C142.113 5.63801 142.201 5.66737 142.23 5.7261C142.26 5.78483 142.23 5.87293 142.172 5.90229L132.231 11.3054C132.192 11.3249 132.162 11.3347 132.143 11.3347Z" fill="#1A60B5"/>
<path d="M141.702 7.86971C141.683 7.86971 141.663 7.86971 141.644 7.86971C141.585 7.84034 141.556 7.75225 141.585 7.69352L142.465 5.52054H140.089C140.002 5.52054 139.943 5.46181 139.943 5.40308C139.943 5.31499 140.002 5.25626 140.089 5.25626H142.67C142.729 5.25626 142.768 5.27583 142.787 5.31499C142.826 5.35414 142.836 5.39329 142.817 5.43244L141.849 7.78161C141.82 7.84034 141.761 7.86971 141.702 7.86971Z" fill="#1A60B5"/>
<path fill-rule="evenodd" clip-rule="evenodd" d="M209.53 24.4901C204.633 24.4901 200.645 20.4965 200.645 15.622C200.645 10.7181 204.633 6.72452 209.53 6.72452C214.427 6.72452 218.386 10.7181 218.386 15.622C218.386 20.4965 214.427 24.4901 209.53 24.4901ZM209.53 6.9888C204.779 6.9888 200.938 10.8649 200.938 15.622C200.938 20.3497 204.779 24.2258 209.53 24.2258C214.251 24.2258 218.122 20.3497 218.122 15.622C218.122 10.8649 214.251 6.9888 209.53 6.9888Z" fill="#1A60B5"/>
<path fill-rule="evenodd" clip-rule="evenodd" d="M209.53 20.8489C206.627 20.8489 204.281 18.4997 204.281 15.622C204.281 12.7149 206.627 10.3657 209.53 10.3657C212.404 10.3657 214.75 12.7149 214.75 15.622C214.75 18.4997 212.404 20.8489 209.53 20.8489ZM209.53 10.6594C206.803 10.6594 204.574 12.8617 204.574 15.622C204.574 18.3529 206.803 20.5846 209.53 20.5846C212.257 20.5846 214.486 18.3529 214.486 15.622C214.486 12.8617 212.257 10.6594 209.53 10.6594Z" fill="#1A60B5"/>
<path fill-rule="evenodd" clip-rule="evenodd" d="M209.53 18.0299C208.181 18.0299 207.096 16.9434 207.096 15.622C207.096 14.2712 208.181 13.1847 209.53 13.1847C210.85 13.1847 211.935 14.2712 211.935 15.622C211.935 16.9434 210.85 18.0299 209.53 18.0299ZM209.53 13.4784C208.357 13.4784 207.389 14.418 207.389 15.622C207.389 16.7966 208.357 17.7362 209.53 17.7362C210.703 17.7362 211.671 16.7966 211.671 15.622C211.671 14.418 210.703 13.4784 209.53 13.4784Z" fill="#1A60B5"/>
<path d="M209.53 15.5926C209.511 15.5926 209.491 15.5926 209.471 15.5926L195.63 8.22211C195.572 8.19274 195.542 8.10465 195.572 8.04592C195.601 7.95783 195.689 7.92846 195.748 7.98719L209.589 15.3283C209.647 15.3871 209.677 15.4752 209.647 15.5339C209.618 15.5633 209.589 15.5926 209.53 15.5926Z" fill="#1A60B5"/>
<path d="M198.827 9.39668C198.768 9.39668 198.739 9.36732 198.709 9.33795L197.771 7.39989L195.513 5.75548L196.305 7.78163C196.334 7.86972 196.305 7.95782 196.246 7.98718C196.158 8.01655 196.07 7.95782 196.07 7.89909L195.102 5.43246C195.073 5.37373 195.073 5.28564 195.132 5.25628C195.19 5.22691 195.249 5.22691 195.308 5.25628L197.947 7.19434C197.966 7.21392 197.986 7.23349 198.005 7.25307L198.973 9.2205C199.002 9.27923 198.973 9.36732 198.885 9.39668C198.866 9.39668 198.846 9.39668 198.827 9.39668Z" fill="#1A60B5"/>
<path d="M196.569 10.4832C196.569 10.4832 196.559 10.4734 196.539 10.4538L193.401 9.51414C193.343 9.48478 193.284 9.42605 193.284 9.36732C193.314 9.30859 193.343 9.24986 193.401 9.24986L195.777 8.66257C195.835 8.66257 195.923 8.69193 195.953 8.78003C195.953 8.83876 195.923 8.92685 195.835 8.92685L193.959 9.39668L196.598 10.1895L198.504 9.92525C198.592 9.92525 198.651 9.98397 198.68 10.0427C198.68 10.1308 198.621 10.1895 198.533 10.2189L196.598 10.4832C196.598 10.4832 196.588 10.4832 196.569 10.4832Z" fill="#1A60B5"/>
<path d="M702.067 206.022C707.668 218.12 703.68 228.28 699.164 237.912C693.622 249.746 697.757 259.789 701.921 270.242C706.085 280.667 698.314 296.465 686.144 308.093C673.945 319.722 680.631 321.895 682.537 335.52C684.003 346.091 681.481 355.84 673.622 364.767C671.364 367.322 668.696 369.818 665.529 372.255C651.394 383.149 667.875 387.407 657.523 394.308C657.484 394.327 657.445 394.347 657.406 394.366C657.054 381.035 654.004 368.878 650.69 357.778C647.113 345.563 643.418 339.367 649.899 331.791C650.681 330.968 651.482 330.087 652.303 329.148C662.186 317.549 662.362 299.46 659.341 285.629C659.361 285.257 659.39 284.885 659.429 284.514C657.054 271.094 657.23 259.054 663.652 250.744C663.789 250.548 663.935 250.363 664.092 250.186C669.253 243.491 669.869 229.983 668.432 217.298C668.285 215.624 668.051 214.068 667.816 212.658C672.215 208.9 676.76 203.115 682.596 199.709C688.226 196.42 695.147 197.712 699.428 202.175C700.484 203.291 701.393 204.583 702.067 206.022ZM668.432 217.298C669.869 229.983 669.253 243.491 664.092 250.186C663.935 250.363 663.789 250.548 663.652 250.744C657.23 259.054 657.054 271.094 659.429 284.514C659.39 284.885 659.361 285.257 659.341 285.629C662.362 299.46 662.186 317.549 652.303 329.148C651.482 330.087 650.681 330.968 649.899 331.791C643.418 339.367 647.113 345.563 650.69 357.778C654.004 368.878 657.054 381.035 657.406 394.366C646.878 401.179 608.873 396.716 608.873 396.716C597.935 365.354 585.766 346.15 599.959 337.986C614.181 329.823 610.193 310.795 611.366 295.555C612.539 280.314 619.225 267.247 629.665 264.252C638.961 261.609 637.993 242.904 644.562 231.187C645.383 229.69 646.35 228.339 647.435 227.135C657.318 216.329 659.341 219.412 666.966 213.363C667.259 213.128 667.542 212.893 667.816 212.658C668.051 214.068 668.285 215.624 668.432 217.298Z" fill="url(#paint0_linear_138_1094)"/>
<g style="mix-blend-mode:multiply">
<path d="M621.102 330.029C621.512 329.882 621.923 330.087 622.069 330.469L627.788 346.003C628.433 342.558 629.176 338.955 630.016 335.197C633.946 317.637 640.632 294.879 651.951 269.508C651.912 269.45 651.873 269.381 651.834 269.303L645.148 251.126C645.001 250.744 645.207 250.304 645.588 250.157C645.969 250.04 646.409 250.216 646.556 250.627L652.831 267.629C661.364 248.806 672.478 228.603 686.906 208.107C687.141 207.784 687.61 207.696 687.933 207.931C688.284 208.166 688.343 208.635 688.109 208.988C679.604 221.086 672.244 233.096 665.88 244.754L679.047 240.232C679.428 240.085 679.868 240.29 679.986 240.672C680.132 241.083 679.927 241.494 679.546 241.641L664.854 246.692C664.854 246.692 664.844 246.692 664.825 246.692C651.687 271.211 642.949 294.204 637.201 313.614L656.526 308.534C656.907 308.416 657.318 308.651 657.435 309.062C657.523 309.473 657.288 309.855 656.907 309.973L637.142 315.17C637.084 315.17 637.025 315.17 636.966 315.17C636.888 315.17 636.81 315.16 636.732 315.141C634.591 322.482 632.861 329.295 631.483 335.461C630.427 340.13 629.547 344.594 628.814 348.793C628.814 348.939 628.785 349.116 628.726 349.233C624.181 374.81 624.65 391.048 624.679 391.224C624.679 391.636 624.357 391.988 623.946 391.988C623.536 392.017 623.184 391.694 623.184 391.283C623.184 391.078 622.685 374.692 627.26 348.881L620.662 330.968C620.515 330.587 620.72 330.175 621.102 330.029Z" fill="#DEDEDE"/>
</g>
<path d="M740.16 318.782C739.72 326.241 735.087 330.205 730.336 333.758C724.471 338.133 723.885 344.182 723.181 350.437C722.477 356.662 714.472 362.418 705.41 364.914C696.349 367.439 699.076 370.287 696.408 377.482C693.768 384.705 688.197 389.492 678.373 391.107C670.309 392.458 673.534 397.009 671.188 399.006C670.661 399.447 669.869 399.77 668.608 399.887C661.687 400.533 639.84 396.216 639.84 396.216C642.714 377.893 645.881 357.191 655.06 356.927C664.209 356.633 667.259 346.209 671.834 338.985C676.438 331.79 683.182 327.122 689.106 328.384C694.384 329.529 698.842 320.074 705.146 316.022C705.968 315.493 706.789 315.082 707.668 314.788C715.351 312.057 715.557 314.113 720.923 313.144C724.207 312.557 728.196 310.707 732.213 310.531C735.849 310.413 738.928 312.88 739.867 316.198C740.101 317.02 740.189 317.901 740.16 318.782Z" fill="url(#paint1_linear_138_1094)"/>
<g style="mix-blend-mode:multiply">
<path d="M652.45 389.316C652.509 389.198 658.051 378.04 670.602 363.475C677.171 355.84 686.467 346.385 698.724 336.871C698.724 336.831 698.724 336.792 698.724 336.753L700.22 326.006C700.249 325.771 700.454 325.624 700.689 325.653C700.894 325.683 701.07 325.888 701.041 326.123L699.633 336.166C708.812 329.148 719.604 322.13 732.125 315.816C732.33 315.728 732.594 315.787 732.682 315.992C732.8 316.227 732.712 316.462 732.506 316.58C725.116 320.28 718.313 324.273 712.096 328.325L719.809 329.588C720.014 329.617 720.19 329.823 720.131 330.058C720.102 330.293 719.897 330.44 719.662 330.41L711.099 329.03C698.138 337.634 687.786 346.678 679.839 354.724L690.689 357.308C690.924 357.367 691.071 357.602 691.012 357.807C690.953 358.042 690.719 358.189 690.513 358.131L679.399 355.458C679.36 355.458 679.331 355.449 679.311 355.429C679.272 355.409 679.233 355.39 679.194 355.37C676.203 358.424 673.564 361.302 671.247 364.003C658.784 378.48 653.271 389.58 653.212 389.697C653.095 389.903 652.861 389.991 652.655 389.874C652.45 389.786 652.362 389.521 652.45 389.316Z" fill="#DEDEDE"/>
</g>
<path d="M37.5119 171.636C32.8493 181.708 36.163 190.165 39.9459 198.182C44.5498 208.048 41.0895 216.417 37.6292 225.08C34.1689 233.772 40.6497 246.927 50.796 256.617C60.913 266.307 55.3706 268.099 53.7871 279.433C52.5555 288.243 54.6668 296.377 61.2062 303.806C63.083 305.92 65.3117 308.005 67.9216 310.031C79.7101 319.105 65.9862 322.658 74.6076 328.384C74.6467 328.404 74.676 328.423 74.6956 328.443C75.0182 317.343 77.5108 307.212 80.2966 297.992C83.2584 287.802 86.3375 282.664 80.9417 276.35C80.2966 275.665 79.6319 274.921 78.9477 274.118C70.7368 264.487 70.5901 249.423 73.0827 237.912C73.0632 237.599 73.0339 237.285 72.9948 236.972C74.9888 225.814 74.8422 215.771 69.5051 208.841C69.3878 208.704 69.2608 208.557 69.1239 208.401C64.8425 202.821 64.3147 191.575 65.517 181.033C65.6343 179.623 65.8395 178.331 66.0155 177.157C62.3499 174.015 58.567 169.199 53.7285 166.38C49.0365 163.62 43.2889 164.735 39.7113 168.435C38.8315 169.346 38.0984 170.432 37.5119 171.636ZM65.517 181.033C64.3147 191.575 64.8425 202.821 69.1239 208.401C69.2608 208.557 69.3878 208.704 69.5051 208.841C74.8422 215.771 74.9888 225.814 72.9948 236.972C73.0339 237.285 73.0632 237.599 73.0827 237.912C70.5901 249.423 70.7368 264.487 78.9477 274.118C79.6319 274.921 80.2966 275.665 80.9417 276.35C86.3375 282.664 83.2584 287.802 80.2966 297.992C77.5108 307.212 75.0182 317.343 74.6956 328.443C83.4637 334.11 115.105 330.381 115.105 330.381C124.225 304.305 134.342 288.302 122.524 281.518C110.677 274.706 114.02 258.878 113.023 246.163C112.055 233.478 106.484 222.613 97.8034 220.117C90.0617 217.915 90.8535 202.322 85.3991 192.573C84.6953 191.34 83.9035 190.194 82.9945 189.196C74.7836 180.211 73.1121 182.765 66.7486 177.744C66.4945 177.548 66.2501 177.352 66.0155 177.157C65.8395 178.331 65.6343 179.623 65.517 181.033Z" fill="url(#paint2_linear_138_1094)"/>
<g style="mix-blend-mode:multiply">
<path d="M104.929 274.882C104.607 274.735 104.255 274.911 104.108 275.234L99.3578 288.184C98.8104 285.306 98.1946 282.301 97.5103 279.169C94.226 264.575 88.6836 245.605 79.2411 224.492C79.2802 224.434 79.3095 224.375 79.3291 224.316L84.9007 209.193C85.018 208.87 84.8714 208.518 84.5488 208.401C84.2263 208.254 83.845 208.43 83.7278 208.753L78.508 222.907C71.4114 207.255 62.1741 190.429 50.151 173.369C49.9457 173.075 49.5645 173.016 49.2713 173.222C49.0073 173.427 48.9194 173.809 49.1246 174.073C56.2212 184.175 62.3501 194.159 67.6578 203.878L56.6904 200.09C56.3678 200.002 56.0159 200.149 55.8986 200.501C55.7813 200.824 55.9573 201.177 56.2799 201.265L68.5083 205.493C79.4757 225.902 86.7189 245.048 91.5281 261.198L75.4289 256.97C75.1063 256.881 74.7544 257.087 74.6664 257.41C74.6078 257.762 74.7837 258.085 75.1356 258.174L91.5574 262.49C91.6161 262.51 91.665 262.519 91.7041 262.519C91.7823 262.519 91.8507 262.51 91.9093 262.49C93.6981 268.598 95.135 274.265 96.2787 279.404C97.1584 283.28 97.8916 286.98 98.5074 290.504C98.5074 290.621 98.5074 290.768 98.5954 290.886C102.349 312.175 101.968 325.683 101.968 325.83C101.938 326.182 102.202 326.446 102.554 326.476C102.906 326.476 103.199 326.211 103.199 325.859C103.199 325.712 103.61 312.058 99.7977 290.592L105.281 275.675C105.399 275.352 105.252 274.999 104.929 274.882Z" fill="#DEDEDE"/>
</g>
<path d="M0.005557 266.983C0.357453 273.208 4.25764 276.526 8.24579 279.492C13.143 283.163 13.6415 288.213 14.228 293.44C14.8145 298.667 21.5005 303.483 29.0956 305.597C36.6907 307.682 34.4034 310.061 36.6321 316.11C38.8314 322.159 43.494 326.153 51.7343 327.503C58.4789 328.649 55.7811 332.466 57.7458 334.11C58.1857 334.492 58.8602 334.756 59.9158 334.844C65.6928 335.402 83.9914 331.791 83.9914 331.791C81.5868 316.433 78.9182 299.108 71.2645 298.873C63.5814 298.667 61.0302 289.917 57.1887 283.868C53.3471 277.848 47.7168 273.942 42.7316 274.999C38.3329 275.968 34.6087 268.04 29.3009 264.663C28.6264 264.223 27.9226 263.87 27.2188 263.606C20.7674 261.345 20.5915 263.048 16.1048 262.255C13.3776 261.756 10.0053 260.2 6.66226 260.053C3.61249 259.935 1.03192 262.02 0.240155 264.81C0.0642072 265.485 -0.0237677 266.219 0.005557 266.983Z" fill="url(#paint3_linear_138_1094)"/>
<g style="mix-blend-mode:multiply">
<path d="M73.4346 326.006C73.376 325.918 68.7427 316.55 58.2444 304.364C52.7314 297.992 44.9604 290.063 34.6967 282.106C34.6967 282.066 34.6967 282.027 34.6967 281.988L33.4651 273.003C33.4358 272.826 33.2598 272.68 33.0545 272.709C32.8786 272.738 32.732 272.915 32.7613 273.12L33.9343 281.518C26.2512 275.645 17.2192 269.743 6.72099 264.487C6.57437 264.399 6.33977 264.458 6.2518 264.634C6.16382 264.81 6.2518 265.015 6.42774 265.104C12.6152 268.216 18.3042 271.534 23.4947 274.97L17.0433 275.998C16.8673 276.027 16.7207 276.203 16.75 276.409C16.7794 276.585 16.9846 276.732 17.1606 276.703L24.3451 275.528C35.1659 282.752 43.846 290.298 50.5027 297.052L41.4121 299.225C41.2361 299.255 41.1188 299.46 41.1481 299.636C41.2068 299.842 41.3827 299.93 41.588 299.901L50.8839 297.669C50.9035 297.669 50.923 297.659 50.9426 297.64C50.9817 297.62 51.011 297.6 51.0306 297.581C53.5525 300.135 55.7518 302.573 57.6873 304.804C68.1268 316.932 72.7601 326.211 72.7895 326.329C72.8774 326.476 73.0827 326.564 73.2587 326.476C73.4346 326.387 73.4933 326.182 73.4346 326.006Z" fill="#DEDEDE"/>
</g>
<path d="M713.094 405.055H8.33398V396.569C8.33398 393.838 10.5627 391.577 13.3192 391.577H708.108C710.836 391.577 713.094 393.838 713.094 396.569V405.055Z" fill="#B1DEF5"/>
<path d="M211.613 375.514H180.91V353.931H211.613V375.514Z" fill="#363636"/>
<path d="M537.879 375.514H507.205V353.931H537.879V375.514Z" fill="#363636"/>
<path d="M102.906 351.347V47.8643C102.906 42.9017 106.923 38.8787 111.85 38.8787H606.938C611.894 38.8787 615.882 42.9017 615.882 47.8643V351.347C615.882 356.31 611.894 360.333 606.938 360.333H111.85C106.923 360.333 102.906 356.31 102.906 351.347Z" fill="#404040"/>
<path d="M87.7158 376.895V384.206C87.7158 388.288 91.0295 391.577 95.0763 391.577H626.322C630.398 391.577 633.712 388.288 633.712 384.206V376.895C633.712 372.813 630.398 369.524 626.322 369.524H95.0763C91.0295 369.524 87.7158 372.813 87.7158 376.895Z" fill="#404040"/>
<path d="M107.862 330.998V51.6817C107.862 47.3651 111.351 43.8413 115.662 43.8413H603.126C607.437 43.8413 610.956 47.3651 610.956 51.6817V330.998C610.956 335.314 607.437 338.838 603.126 338.838H115.662C111.351 338.838 107.862 335.314 107.862 330.998Z" fill="#737373"/>
<path d="M603.243 331.115H115.574V51.5642H603.243V331.115Z" fill="#DBF3FF"/>
<path d="M130.618 316.022V66.6576H588.17V316.022H130.618Z" fill="white"/>
<g style="mix-blend-mode:multiply">
<path d="M264.984 304.57H154.811C150.705 304.57 147.392 301.222 147.392 297.111V111.85C147.392 107.739 150.705 104.42 154.811 104.42H264.984C269.089 104.42 272.403 107.739 272.403 111.85V297.111C272.403 301.222 269.089 304.57 264.984 304.57Z" fill="#D1D1D1"/>
</g>
<path d="M258.532 295.936H148.359C144.254 295.936 140.94 292.618 140.94 288.507V103.246C140.94 99.1348 144.254 95.8167 148.359 95.8167H258.532C262.637 95.8167 265.951 99.1348 265.951 103.246V288.507C265.951 292.618 262.637 295.936 258.532 295.936Z" fill="#DBF3FF"/>
<path d="M258.649 95.8167H148.242C144.224 95.8167 140.94 99.0761 140.94 103.128V119.631H265.951V103.128C265.951 99.0761 262.696 95.8167 258.649 95.8167Z" fill="#809CFF"/>
<path d="M153.403 105.566C153.403 107.621 151.732 109.295 149.679 109.295C147.626 109.295 145.955 107.621 145.955 105.566C145.955 103.51 147.626 101.836 149.679 101.836C151.732 101.836 153.403 103.51 153.403 105.566Z" fill="white"/>
<path d="M164.957 105.566C164.957 107.621 163.285 109.295 161.233 109.295C159.18 109.295 157.508 107.621 157.508 105.566C157.508 103.51 159.18 101.836 161.233 101.836C163.285 101.836 164.957 103.51 164.957 105.566Z" fill="white"/>
<path d="M176.482 105.566C176.482 107.621 174.839 109.295 172.757 109.295C170.705 109.295 169.033 107.621 169.033 105.566C169.033 103.51 170.705 101.836 172.757 101.836C174.839 101.836 176.482 103.51 176.482 105.566Z" fill="white"/>
<g style="mix-blend-mode:multiply">
<path d="M182.581 182.472H153.784C150.5 182.472 147.832 179.799 147.832 176.511V147.675C147.832 144.386 150.5 141.714 153.784 141.714H182.581C185.866 141.714 188.534 144.386 188.534 147.675V176.511C188.534 179.799 185.866 182.472 182.581 182.472Z" fill="#D4D4D4"/>
</g>
<path d="M180.118 179.887H151.35C148.066 179.887 145.368 177.215 145.368 173.926V145.09C145.368 141.802 148.066 139.129 151.35 139.129H180.118C183.432 139.129 186.1 141.802 186.1 145.09V173.926C186.1 177.215 183.432 179.887 180.118 179.887Z" fill="#809CFF"/>
<path d="M234.574 150.024H200.264C199.267 150.024 198.417 149.201 198.417 148.174V142.536C198.417 141.537 199.267 140.686 200.264 140.686H234.574C235.6 140.686 236.421 141.537 236.421 142.536V148.174C236.421 149.201 235.6 150.024 234.574 150.024Z" fill="white"/>
<path d="M255.072 167.084H200.264C199.267 167.084 198.417 166.262 198.417 165.234V159.596C198.417 158.598 199.267 157.747 200.264 157.747H255.072C256.098 157.747 256.919 158.598 256.919 159.596V165.234C256.919 166.262 256.098 167.084 255.072 167.084Z" fill="white"/>
<path d="M255.072 184.145H200.264C199.267 184.145 198.417 183.323 198.417 182.295V176.657C198.417 175.659 199.267 174.807 200.264 174.807H255.072C256.098 174.807 256.919 175.659 256.919 176.657V182.295C256.919 183.323 256.098 184.145 255.072 184.145Z" fill="white"/>
<g style="mix-blend-mode:multiply">
<path d="M182.581 254.562H153.784C150.5 254.562 147.832 251.889 147.832 248.601V219.765C147.832 216.476 150.5 213.804 153.784 213.804H182.581C185.866 213.804 188.534 216.476 188.534 219.765V248.601C188.534 251.889 185.866 254.562 182.581 254.562Z" fill="#D4D4D4"/>
</g>
<path d="M180.118 251.978H151.35C148.066 251.978 145.368 249.305 145.368 246.017V217.18C145.368 213.892 148.066 211.219 151.35 211.219H180.118C183.432 211.219 186.1 213.892 186.1 217.18V246.017C186.1 249.305 183.432 251.978 180.118 251.978Z" fill="#809CFF"/>
<path d="M234.574 222.114H200.264C199.267 222.114 198.417 221.292 198.417 220.264V214.655C198.417 213.627 199.267 212.805 200.264 212.805H234.574C235.6 212.805 236.421 213.627 236.421 214.655V220.264C236.421 221.292 235.6 222.114 234.574 222.114Z" fill="white"/>
<path d="M255.072 239.175H200.264C199.267 239.175 198.417 238.352 198.417 237.325V231.716C198.417 230.688 199.267 229.866 200.264 229.866H255.072C256.098 229.866 256.919 230.688 256.919 231.716V237.325C256.919 238.352 256.098 239.175 255.072 239.175Z" fill="white"/>
<path d="M255.072 256.235H200.264C199.267 256.235 198.417 255.413 198.417 254.385V248.777C198.417 247.749 199.267 246.927 200.264 246.927H255.072C256.098 246.927 256.919 247.749 256.919 248.777V254.385C256.919 255.413 256.098 256.235 255.072 256.235Z" fill="white"/>
<path d="M332.166 258.232C331.638 258.232 331.081 258.027 330.671 257.616C329.849 256.793 329.849 255.443 330.671 254.62L387.003 198.211C387.414 197.8 387.942 197.594 388.499 197.594H464.215L511.281 150.464C511.662 150.053 512.19 149.848 512.777 149.848H556.089C557.262 149.848 558.201 150.787 558.201 151.962C558.201 153.136 557.262 154.076 556.089 154.076H513.656L466.59 201.206C466.18 201.588 465.652 201.823 465.095 201.823H389.379L333.662 257.616C333.251 258.027 332.723 258.232 332.166 258.232Z" fill="#DBF3FF"/>
<path d="M471.605 217.21V288.566H489.083V199.709L471.605 217.21Z" fill="#809CFF"/>
<path d="M438.204 288.566H456.121V223.729H438.204V288.566Z" fill="#809CFF"/>
<path d="M504.537 288.566H522.454V175.982H512.777L504.537 184.233V288.566Z" fill="#809CFF"/>
<path d="M370.464 288.566H388.381V223.846L370.464 241.788V288.566Z" fill="#809CFF"/>
<path d="M403.835 288.566H422.75V223.729H403.835V288.566Z" fill="#809CFF"/>
<path d="M537.937 175.982V288.566H556.089V175.982H537.937Z" fill="#809CFF"/>
<path d="M355.01 257.293L332.166 280.138V288.566H355.01V257.293Z" fill="#809CFF"/>
<path d="M157.333 327.356L157.098 349.145L145.955 349.028L146.16 327.239L157.333 327.356Z" fill="#4C8AD4"/>
<path d="M157.303 329.236L157.127 347.295L242.726 348.147C244.838 348.176 246.568 346.473 246.597 344.359L246.714 333.993C246.714 331.849 245.013 330.117 242.902 330.117L157.303 329.236Z" fill="#1A60B5"/>
<path d="M96.1026 283.163C126.131 283.486 150.236 308.093 149.913 338.192C149.62 368.261 125.017 392.37 94.9883 392.076C64.9598 391.753 40.8549 367.145 41.1775 337.047C41.4708 306.977 66.0742 282.869 96.1026 283.163Z" fill="#1A60B5"/>
<path d="M125.193 367.909C132.934 360.333 137.773 349.762 137.89 338.045C138.008 326.329 133.374 315.699 125.809 307.946C118.213 300.194 107.686 295.32 95.9853 295.202C95.868 307.036 95.7214 321.777 95.5748 337.634C95.3988 353.462 95.2522 368.203 95.1056 380.037C106.806 380.154 117.451 375.514 125.193 367.909ZM95.1056 380.037C95.2522 368.203 95.3988 353.462 95.5748 337.634C95.7214 321.777 95.868 307.036 95.9853 295.202C84.2848 295.085 73.6399 299.724 65.8982 307.33C58.1565 314.906 53.3179 325.477 53.2006 337.194C53.054 348.91 57.6873 359.54 65.2824 367.292C72.8775 375.045 83.405 379.919 95.1056 380.037Z" fill="url(#paint4_linear_138_1094)"/>
<g style="mix-blend-mode:screen">
<path d="M129.445 337.957C129.269 356.692 113.902 371.785 95.1934 371.579C85.9268 371.491 77.3053 367.703 70.9125 360.979C69.6809 359.657 69.7102 357.573 71.0298 356.31C72.3494 355.047 74.4608 355.106 75.6925 356.427C80.8243 361.86 87.7742 364.914 95.252 364.972C110.325 365.149 122.729 352.992 122.876 337.898C122.905 336.078 124.371 334.609 126.19 334.639C128.008 334.668 129.474 336.136 129.445 337.957Z" fill="#353E45"/>
</g>
<g style="mix-blend-mode:screen">
<path d="M69.4174 346.238C69.4174 347.647 68.479 348.939 67.0421 349.351C65.3119 349.879 63.4938 348.851 62.966 347.119C62.0569 343.918 61.5877 340.629 61.617 337.282C61.6463 335.461 63.1419 333.993 64.96 334.022C66.7782 334.022 68.2444 335.52 68.2151 337.34C68.1857 340.042 68.5376 342.714 69.3001 345.269C69.3783 345.602 69.4174 345.925 69.4174 346.238Z" fill="#353E45"/>
</g>
<path d="M92.4076 370.787L92.4369 362.271C87.1878 362.154 81.7921 360.597 78.625 358.483L80.8244 352.845C84.0794 354.871 88.7713 356.516 93.8445 356.545C100.237 356.574 104.607 353.139 104.636 348.323C104.665 343.683 101.146 340.805 94.4603 338.221C85.2817 334.786 79.5927 330.88 79.622 323.539C79.6807 316.55 85.0471 311.235 93.3753 310.031L93.4046 301.516L99.0056 301.545L98.9763 309.708C104.401 309.914 108.096 311.294 110.706 312.733L108.419 318.312C106.513 317.284 102.818 315.405 97.0409 315.376C90.0909 315.317 87.4224 319.193 87.4224 322.57C87.3931 326.945 90.7361 329.177 98.5658 332.26C107.862 335.843 112.554 340.277 112.495 347.765C112.466 354.431 107.451 360.656 98.1259 362.036L98.0966 370.816L92.4076 370.787Z" fill="#1A60B5"/>
<path d="M655.148 391.87H543.216C541.515 391.87 540.166 390.49 540.166 388.817V276.937C540.166 275.234 541.515 273.884 543.216 273.884H655.148C656.849 273.884 658.198 275.234 658.198 276.937V388.817C658.198 390.49 656.849 391.87 655.148 391.87Z" fill="#52BDF1"/>
<path d="M595.59 331.761H546.178C544.506 331.761 543.128 330.41 543.128 328.707V279.257C543.128 277.554 544.506 276.203 546.178 276.203H595.59C597.261 276.203 598.64 277.554 598.64 279.257V328.707C598.64 330.41 597.261 331.761 595.59 331.761Z" fill="#80D5FF"/>
<path d="M652.831 331.761H603.449C601.777 331.761 600.399 330.41 600.399 328.707V279.257C600.399 277.554 601.777 276.203 603.449 276.203H652.831C654.532 276.203 655.911 277.554 655.911 279.257V328.707C655.911 330.41 654.532 331.761 652.831 331.761Z" fill="#80D5FF"/>
<path d="M595.59 389.257H546.178C544.506 389.257 543.128 387.877 543.128 386.203V336.753C543.128 335.05 544.506 333.67 546.178 333.67H595.59C597.261 333.67 598.64 335.05 598.64 336.753V386.203C598.64 387.877 597.261 389.257 595.59 389.257Z" fill="#80D5FF"/>
<path d="M652.831 389.257H603.449C601.777 389.257 600.399 387.877 600.399 386.203V336.753C600.399 335.05 601.777 333.67 603.449 333.67H652.831C654.532 333.67 655.911 335.05 655.911 336.753V386.203C655.911 387.877 654.532 389.257 652.831 389.257Z" fill="#80D5FF"/>
<path fill-rule="evenodd" clip-rule="evenodd" d="M568.171 297.287C568.171 303.747 564.799 306.948 560.84 306.948C557.028 306.948 553.743 303.894 553.685 297.728C553.685 291.59 557.028 288.155 561.074 288.155C565.356 288.155 568.171 291.444 568.171 297.287ZM556.969 297.581C556.881 301.486 558.347 304.452 560.928 304.452C563.655 304.452 564.887 301.545 564.887 297.493C564.887 293.763 563.802 290.651 560.928 290.651C558.347 290.651 556.969 293.705 556.969 297.581ZM560.547 319.81L578.523 288.155H581.162L563.186 319.81H560.547ZM588.053 309.973C588.053 316.403 584.681 319.604 580.781 319.604C576.968 319.604 573.684 316.55 573.625 310.442C573.625 304.276 576.968 300.84 581.015 300.84C585.297 300.84 588.053 304.129 588.053 309.973ZM576.88 310.237C576.822 314.142 578.317 317.108 580.869 317.108C583.596 317.108 584.827 314.201 584.827 310.149C584.827 306.42 583.742 303.336 580.869 303.336C578.288 303.336 576.88 306.39 576.88 310.237Z" fill="white"/>
<path d="M584.769 364.238H556.999V358.718H584.769V364.238Z" fill="white"/>
<path d="M642.011 359.158H614.27V353.638H642.011V359.158Z" fill="white"/>
<path d="M642.011 369.289H614.27V363.798H642.011V369.289Z" fill="white"/>
<path d="M642.011 301.222H630.897V290.093H625.384V301.222H614.27V306.743H625.384V317.872H630.897V306.743H642.011V301.222Z" fill="white"/>
<path d="M546.031 362.917C545.943 378.833 532.043 391.636 515.005 391.547C497.967 391.459 484.214 378.48 484.302 362.565C484.39 346.678 498.29 333.846 515.328 333.934C532.365 334.022 546.119 347.001 546.031 362.917Z" fill="#FFEE80"/>
<path d="M540.957 362.888C540.899 376.19 529.286 386.908 515.034 386.82C500.783 386.761 489.287 375.896 489.346 362.594C489.434 349.292 501.046 338.574 515.298 338.662C529.55 338.721 541.045 349.585 540.957 362.888Z" fill="white"/>
<path d="M513.392 381.593L513.422 376.953C510.548 376.895 507.615 376.043 505.885 374.898L507.088 371.814C508.847 372.93 511.398 373.811 514.155 373.841C517.674 373.841 520.02 371.991 520.049 369.348C520.049 366.822 518.143 365.266 514.507 363.857C509.522 362.007 506.413 359.863 506.442 355.869C506.472 352.052 509.375 349.174 513.92 348.528L513.95 343.889H516.999L516.97 348.352C519.902 348.47 521.926 349.204 523.363 349.997L522.102 353.021C521.075 352.463 519.052 351.435 515.914 351.435C512.131 351.406 510.695 353.52 510.665 355.341C510.665 357.749 512.483 358.953 516.735 360.627C521.809 362.565 524.36 364.972 524.33 369.054C524.301 372.695 521.574 376.072 516.501 376.836V381.593H513.392Z" fill="#FFEE80"/>
<path d="M133.492 195.216H65.6636C62.7898 195.216 60.4731 197.536 60.4731 200.384V240.32C60.4731 243.168 62.7898 245.488 65.6636 245.488H74.1384V254.855L84.754 245.488H133.492C136.365 245.488 138.682 243.168 138.682 240.32V200.384C138.682 197.536 136.365 195.216 133.492 195.216Z" fill="#FFEE80"/>
<g style="mix-blend-mode:multiply">
<path d="M99.6215 214.978H69.5344C68.2441 214.978 67.2178 213.95 67.2178 212.688V210.309C67.2178 209.047 68.2441 208.019 69.5344 208.019H99.6215C100.882 208.019 101.909 209.047 101.909 210.309V212.688C101.909 213.95 100.882 214.978 99.6215 214.978Z" fill="#BFBFBF"/>
</g>
<path d="M102.114 212.071H69.8278C69.1827 212.071 68.6255 211.542 68.6255 210.867V206.345C68.6255 205.67 69.1827 205.141 69.8278 205.141H102.114C102.789 205.141 103.317 205.67 103.317 206.345V210.867C103.317 211.542 102.789 212.071 102.114 212.071Z" fill="white"/>
<g style="mix-blend-mode:multiply">
<path d="M124.606 232.714H69.5344C68.2441 232.714 67.2178 231.687 67.2178 230.424V228.075C67.2178 226.812 68.2441 225.784 69.5344 225.784H124.606C125.867 225.784 126.893 226.812 126.893 228.075V230.424C126.893 231.687 125.867 232.714 124.606 232.714Z" fill="#BFBFBF"/>
</g>
<path d="M128.096 229.837H70.8542C70.1797 229.837 69.6519 229.308 69.6519 228.633V224.081C69.6519 223.435 70.1797 222.877 70.8542 222.877H128.096C128.77 222.877 129.328 223.435 129.328 224.081V228.633C129.328 229.308 128.77 229.837 128.096 229.837Z" fill="white"/>
<path d="M64.6661 127.648C55.6048 129.762 48.7721 160.507 47.951 169.786C47.1593 179.065 54.1385 178.889 55.7514 176.628C57.3936 174.338 67.9505 152.696 67.9505 152.696C67.9505 152.696 69.6513 130.261 64.6661 127.648Z" fill="#D1E0FF"/>
<path d="M40.5611 267.599C39.7693 266.043 38.9482 263.048 39.1535 258.761C39.3588 257.146 39.652 255.12 39.9453 252.8C40.1017 251.645 40.2581 250.421 40.4145 249.129L32.7314 251.185C32.878 252.565 32.9953 253.886 33.1126 255.061C33.3472 257.586 33.2886 260.141 32.8194 262.637C32.6728 263.4 32.5261 264.046 32.3502 264.369C31.7637 265.632 27.3357 269.919 25.3123 273.59C25.1363 274.06 20.591 274.764 21.2655 275.822C21.676 276.056 29.623 276.673 30.5027 275.822C31.4118 274.941 33.5232 272.826 35.8985 272.327C36.0451 272.357 36.0451 276.203 36.0451 276.203L39.4761 276.233C39.4761 276.233 39.8866 272.797 40.0333 271.769C40.1799 270.741 41.3529 269.185 40.5611 267.599Z" fill="#FF8762"/>
<path d="M25.3126 273.649C26.7495 273.795 28.3037 274.118 28.8608 273.884C29.6233 273.561 34.5205 267.453 39.9162 265.955C40.1215 266.601 40.3268 267.159 40.5614 267.599C41.3531 269.185 40.1802 270.741 40.0335 271.769C39.8869 272.797 39.4764 276.233 39.4764 276.233L36.0454 276.203C36.0454 276.203 36.0454 272.357 35.8988 272.327C33.5235 272.826 31.4121 274.941 30.503 275.822C29.6233 276.673 21.6763 276.056 21.2657 275.822C20.5913 274.794 24.8727 274.118 25.3126 273.649Z" fill="#2B1710"/>
<path d="M35.195 217.856C33.9926 216.593 32.3505 213.95 31.3241 209.781C31.0895 208.166 30.7963 206.139 30.4444 203.82C30.2684 202.665 30.0729 201.451 29.8579 200.178L23.0839 204.319C23.5824 205.611 24.0809 206.815 24.5208 207.931C25.4592 210.28 26.1043 212.746 26.3682 215.272C26.4562 216.035 26.4855 216.711 26.4269 217.092C26.163 218.443 23.1425 223.788 22.2628 227.899C22.2041 228.398 18.0107 230.365 18.9784 231.187C19.4476 231.275 27.248 229.631 27.8638 228.574C28.4503 227.487 29.8872 224.845 32.0279 223.729C32.1745 223.699 33.2595 227.399 33.2595 227.399L36.5732 226.43C36.5732 226.43 35.9867 223.053 35.8401 222.026C35.6935 220.998 36.3973 219.177 35.195 217.856Z" fill="#FF8762"/>
<path d="M22.2335 227.957C23.6704 227.722 25.2539 227.576 25.7231 227.194C26.339 226.665 29.3594 219.412 34.11 216.476C34.4912 217.034 34.8431 217.504 35.195 217.856C36.3973 219.177 35.6935 220.998 35.8402 222.026C35.9868 223.053 36.5733 226.43 36.5733 226.43L33.2596 227.399C33.2596 227.399 32.1746 223.699 32.0279 223.729C29.8872 224.845 28.4503 227.487 27.8638 228.574C27.248 229.631 19.4477 231.276 18.9785 231.187C18.0401 230.395 21.9696 228.545 22.2335 227.957Z" fill="#2B1710"/>
<path d="M82.9943 117.282C83.9914 120.101 91.3812 126.238 96.9529 124.124C102.525 121.981 108.243 128.441 105.369 132.64C107.979 135.958 106.219 144.826 96.2784 146.059C86.308 147.322 79.4167 129.703 79.1821 119.602C80.2965 117.077 82.9943 117.282 82.9943 117.282Z" fill="#2B1710"/>
<path d="M69.4757 126.943L64.6664 127.648C64.0506 134.255 58.0684 141.361 57.7458 145.032C57.4526 148.673 62.2325 154.164 64.1386 157.629C66.074 161.065 66.074 164.119 66.074 164.119H86.2494C86.2494 163.208 91.1173 140.568 90.5308 134.96C89.915 129.38 82.7304 127.295 82.7304 127.295C82.7304 127.295 75.4872 127.853 69.4757 126.943Z" fill="white"/>
<path d="M77.3052 117.664C77.3052 119.103 78.5955 120.277 80.179 120.277C81.7625 120.277 83.0528 119.103 83.0528 117.664C83.0528 116.196 81.7625 115.021 80.179 115.021C78.5955 115.021 77.3052 116.196 77.3052 117.664Z" fill="#C2DBF2"/>
<path d="M76.1323 119.719C81.0002 120.571 83.8154 116.049 82.4078 112.466C82.8184 105.184 79.71 97.9896 68.8012 101.895C63.3761 102.571 61.2941 109.765 65.7514 111.644C71.675 116.9 76.1323 119.719 76.1323 119.719Z" fill="#2B1710"/>
<path d="M71.7925 122.509C72.1444 124.565 72.2617 124.976 69.3586 126.943C69.4465 136.105 82.7306 128.588 82.672 127.237C82.672 127.061 80.238 126.503 79.329 124.946C78.4492 123.361 78.0093 119.367 78.3612 114.023C76.2792 114.581 75.5754 112.936 75.5167 110.088C75.4874 107.24 74.1092 102.717 68.6254 103.422C66.5434 105.977 65.4291 107.592 65.605 110.91C65.781 114.199 65.3997 116.548 65.8103 118.134C66.1915 119.69 67.8923 122.597 71.7925 122.509Z" fill="#FF8762"/>
<g style="mix-blend-mode:multiply">
<path d="M72.2321 117.605C69.7101 116.548 67.3055 116.577 67.5108 117.488C67.3642 119.631 70.062 121.922 72.2321 117.605Z" fill="#E0B3A8"/>
</g>
<path d="M68.6254 116.166C68.6254 116.166 68.4201 115.961 68.1268 115.726C68.0095 115.462 67.687 115.05 67.511 114.845C67.8336 114.874 68.772 115.021 69.0946 114.904C69.2705 115.315 69.1825 115.902 68.6254 116.166ZM69.0946 114.904C68.772 115.021 67.8336 114.874 67.511 114.845C67.4524 114.767 67.4133 114.718 67.3937 114.698C67.7163 114.669 68.4201 114.727 68.8306 114.581C68.9479 114.639 69.0359 114.757 69.0946 114.904ZM68.1268 115.726C68.0486 115.648 67.9704 115.559 67.8922 115.462C67.6283 115.227 67.3644 114.962 67.2471 114.816C67.2764 114.816 67.3937 114.845 67.511 114.845C67.687 115.05 68.0095 115.462 68.1268 115.726ZM67.511 114.845C67.3937 114.845 67.2764 114.816 67.2471 114.816C67.208 114.776 67.1982 114.747 67.2178 114.727C67.2178 114.698 67.2764 114.698 67.3937 114.698C67.4133 114.718 67.4524 114.767 67.511 114.845Z" fill="url(#paint5_linear_138_1094)"/>
<path d="M81.1175 115.168C81.1175 116.108 80.355 116.842 79.4166 116.842C78.4782 116.842 77.7451 116.108 77.7451 115.168C77.7451 114.228 78.4782 113.465 79.4166 113.465C80.355 113.465 81.1175 114.228 81.1175 115.168Z" fill="#FF8762"/>
<g style="mix-blend-mode:multiply">
<path d="M79.065 116.049C79.0063 116.049 78.977 116.019 78.9477 115.961C78.9477 115.931 78.9477 115.843 79.0063 115.843C79.1627 115.765 79.2409 115.677 79.2409 115.579C79.2703 115.462 79.1823 115.315 79.0943 115.256C78.9477 115.168 78.8011 115.168 78.6838 115.227C78.6447 115.246 78.6056 115.246 78.5665 115.227C78.5274 115.207 78.5078 115.178 78.5078 115.139C78.5371 114.727 78.8011 114.404 79.2409 114.287C79.6515 114.14 80.0913 114.258 80.3553 114.61C80.3846 114.669 80.3846 114.727 80.3259 114.757C80.2966 114.786 80.2086 114.786 80.1793 114.727C79.9447 114.434 79.5635 114.404 79.2996 114.493C79.065 114.551 78.8597 114.698 78.7717 114.962C78.9184 114.962 79.065 114.992 79.2116 115.08C79.3876 115.197 79.4755 115.403 79.4755 115.579C79.4755 115.696 79.3876 115.902 79.0943 116.019C79.0943 116.039 79.0845 116.049 79.065 116.049Z" fill="#E0B3A8"/>
</g>
<g style="mix-blend-mode:multiply">
<path d="M72.1441 122.509C72.1441 122.509 72.1539 122.509 72.1735 122.509C74.9593 121.716 77.2173 119.338 77.8918 116.489C77.8918 116.431 77.8624 116.372 77.8038 116.372C77.7451 116.343 77.6865 116.372 77.6865 116.431C77.012 119.22 74.842 121.54 72.1148 122.304C72.0562 122.333 71.9975 122.392 72.0268 122.45C72.0268 122.48 72.0855 122.509 72.1441 122.509Z" fill="#E0B3A8"/>
</g>
<path d="M74.8713 110.323C74.9104 110.323 74.9397 110.303 74.9593 110.264C74.9886 110.205 74.9593 110.176 74.9299 110.117C73.9622 108.796 71.9975 107.768 71.1471 109.471C71.1177 109.53 71.0591 109.53 71.0591 109.589C71.0884 109.647 71.1471 109.677 71.2057 109.677C71.7629 109.501 73.4051 109.501 74.8126 110.323C74.8322 110.323 74.8517 110.323 74.8713 110.323Z" fill="#2B1710"/>
<path d="M66.0447 110.44C66.0642 110.44 66.0838 110.421 66.1033 110.382C66.1327 110.382 66.5725 109.824 67.9801 110C68.0388 110 68.0681 109.941 68.0974 109.882C68.0974 109.824 68.0094 109.824 67.9801 109.765C67.2177 108.091 65.986 110.205 65.9567 110.264C65.8981 110.323 65.9274 110.382 65.9567 110.411C65.9763 110.43 66.0056 110.44 66.0447 110.44Z" fill="#2B1710"/>
<path d="M68.5371 116.196C68.5762 116.196 68.6055 116.186 68.625 116.166C68.6544 116.108 68.6544 116.049 68.625 116.019C68.0385 115.579 67.4227 115.021 67.3054 114.845C67.3934 114.816 67.5987 114.816 67.7453 114.816C68.1558 114.786 68.5957 114.786 68.8596 114.639C69.4168 114.316 68.8596 111.85 68.3611 110.704C68.3318 110.646 68.2731 110.646 68.2145 110.646C68.1558 110.675 68.1265 110.734 68.1558 110.793C68.7717 112.143 69.0942 114.258 68.7423 114.463C68.5371 114.581 68.0972 114.581 67.7453 114.581C67.3054 114.581 67.0415 114.61 67.0415 114.786C67.0415 115.021 67.8333 115.667 68.4784 116.196C68.498 116.196 68.5175 116.196 68.5371 116.196Z" fill="#2B1710"/>
<path d="M71.8218 112.584C71.8218 113.23 72.115 113.729 72.4962 113.729C72.8481 113.729 73.1414 113.23 73.1414 112.584C73.1414 111.938 72.8481 111.409 72.4962 111.409C72.115 111.409 71.8218 111.938 71.8218 112.584Z" fill="#2B1710"/>
<g style="mix-blend-mode:multiply">
<path d="M72.6427 114.14C72.8773 114.14 73.3758 114.052 73.5224 113.201C73.5224 113.171 73.5224 113.142 73.4931 113.142C73.4638 113.142 73.4345 113.171 73.4345 113.201C73.2585 113.993 72.7893 114.052 72.584 114.023C72.5547 114.023 72.5254 114.052 72.5254 114.081C72.5254 114.111 72.5547 114.14 72.584 114.14C72.6036 114.14 72.6231 114.14 72.6427 114.14Z" fill="#E0B3A8"/>
</g>
<path d="M66.8657 112.701C66.8657 113.347 67.159 113.876 67.5109 113.876C67.8921 113.876 68.1853 113.347 68.1853 112.701C68.1853 112.055 67.8921 111.556 67.5109 111.556C67.159 111.556 66.8657 112.055 66.8657 112.701Z" fill="#2B1710"/>
<g style="mix-blend-mode:multiply">
<path d="M67.6573 114.287C67.8919 114.287 68.3904 114.17 68.5664 113.347C68.5664 113.318 68.5371 113.289 68.5077 113.289C68.4784 113.289 68.4491 113.318 68.4491 113.347C68.3025 114.14 67.8039 114.17 67.628 114.17C67.5987 114.17 67.5693 114.199 67.5693 114.228C67.5693 114.258 67.5693 114.258 67.5987 114.287C67.6182 114.287 67.6378 114.287 67.6573 114.287Z" fill="#E0B3A8"/>
</g>
<path d="M73.3758 115.168C73.6397 115.52 73.8157 115.843 73.757 115.873C73.7277 115.902 73.4638 115.667 73.1999 115.315C72.9359 114.962 72.7893 114.639 72.8186 114.61C72.8773 114.581 73.1119 114.845 73.3758 115.168Z" fill="#FF7E57"/>
<path d="M72.7013 115.256C72.9652 115.608 73.1411 115.931 73.1118 115.961C73.0531 115.99 72.7892 115.726 72.5546 115.403C72.2907 115.05 72.1148 114.727 72.1734 114.698C72.2027 114.669 72.4667 114.904 72.7013 115.256Z" fill="#FF7E57"/>
<path d="M71.9683 115.344C72.2323 115.667 72.4082 115.99 72.3496 116.019C72.3202 116.049 72.0563 115.814 71.8217 115.462C71.5578 115.109 71.3819 114.816 71.4405 114.757C71.4698 114.727 71.7337 114.992 71.9683 115.344Z" fill="#FF7E57"/>
<path d="M78.2729 117.488C78.2729 117.928 78.6248 118.281 79.0647 118.281C79.4753 118.281 79.8565 117.928 79.8565 117.488C79.8565 117.047 79.4753 116.695 79.0647 116.695C78.6248 116.695 78.2729 117.047 78.2729 117.488Z" fill="white"/>
<g style="mix-blend-mode:multiply">
<path d="M69.6811 120.953C69.4172 120.953 69.0946 120.923 68.7427 120.806C68.7134 120.777 68.6841 120.718 68.6841 120.688C68.7134 120.63 68.7721 120.63 68.8014 120.63C69.5052 120.894 70.1796 120.747 70.1796 120.747C70.2383 120.718 70.2969 120.747 70.2969 120.806C70.2969 120.835 70.2676 120.894 70.2383 120.894C70.209 120.894 70.0037 120.953 69.6811 120.953Z" fill="#E0B3A8"/>
</g>
<path d="M72.232 117.605L67.5107 117.488C67.5107 119.602 70.5898 120.6 72.232 117.605Z" fill="#2B1710"/>
<path d="M68.3613 119.103C69.0065 118.192 69.9155 117.811 69.9155 117.811L71.3818 117.576L72.2322 117.605C71.1472 119.602 69.417 119.808 68.3613 119.103Z" fill="#7D2727"/>
<path d="M67.5107 117.488L72.232 117.605C71.1177 118.369 68.2145 118.604 67.5107 117.488Z" fill="white"/>
<path d="M65.4581 165.587C65.4581 165.587 59.1533 171.137 58.0683 171.137C56.9833 171.137 33.4649 151.932 25.342 152.725C17.2484 153.547 13.9933 162.768 15.8701 174.396C17.7762 186.054 23.5825 216.799 23.5825 216.799L39.9456 212.306C39.9456 212.306 32.3799 177.098 34.286 178.184C36.1628 179.271 52.6726 192.279 52.6726 192.279L76.4549 189.02L75.3698 167.349L69.8275 164.794L65.4581 165.587Z" fill="#001C70"/>
<g style="mix-blend-mode:multiply">
<path d="M23.4651 211.484C23.3478 211.484 23.2305 211.425 23.2012 211.308C23.1719 211.161 23.2305 211.014 23.3771 210.985L35.8108 207.314C35.9574 207.285 36.104 207.373 36.1334 207.49C36.192 207.637 36.104 207.784 35.9574 207.813L23.5237 211.484C23.5042 211.484 23.4846 211.484 23.4651 211.484Z" fill="#D4D4D4"/>
</g>
<path d="M85.6627 165.469C85.6627 165.469 94.5774 180.622 90.0027 191.721C85.3988 202.851 56.7192 204.201 54.0214 210.691C51.3235 217.18 43.0539 261.051 43.0539 261.051H24.2568C24.2568 261.051 27.6585 214.361 34.5498 201.764C41.4411 189.167 61.3232 179.829 64.1677 177.773C67.0122 175.747 69.8274 164.794 69.8274 164.794L85.6627 165.469Z" fill="#00248F"/>
<path d="M86.6011 165.587H65.458V163.649H86.6011V165.587Z" fill="#2B1710"/>
<path d="M77.188 166.027H76.1616V163.003H77.188V166.027Z" fill="#00248F"/>
<path d="M84.3433 166.027H83.3169V163.003H84.3433V166.027Z" fill="#00248F"/>
<g style="mix-blend-mode:multiply">
<path d="M83.9035 179.682C83.8839 179.682 83.8644 179.672 83.8448 179.653C79.1822 178.537 76.8656 173.486 77.9799 166.761C77.9799 166.644 78.1265 166.527 78.2731 166.556C78.4198 166.585 78.5077 166.732 78.4784 166.85C77.4227 173.28 79.5927 178.096 83.9621 179.153C84.1087 179.183 84.1967 179.33 84.1674 179.476C84.1381 179.594 84.0208 179.682 83.9035 179.682Z" fill="#D4D4D4"/>
</g>
<g style="mix-blend-mode:multiply">
<path d="M37.7759 256.177C37.7759 256.177 37.7661 256.177 37.7465 256.177C37.5999 256.147 37.5119 256 37.5413 255.883C37.8638 254.18 45.4296 214.185 49.3298 206.374C51.881 201.265 62.086 198.651 70.3262 196.537C75.0475 195.304 79.1236 194.276 80.9124 193.013C85.9856 189.431 85.3698 177.245 83.1118 166.996C83.0825 166.879 83.1704 166.732 83.3171 166.703C83.4344 166.673 83.581 166.761 83.6103 166.908C85.927 177.274 86.5135 189.725 81.2057 193.425C79.3582 194.746 75.2235 195.803 70.4435 197.036C62.3206 199.121 52.2329 201.705 49.799 206.609C45.9281 214.332 38.1278 255.56 38.0398 255.971C38.0105 256.089 37.9225 256.177 37.7759 256.177Z" fill="#D4D4D4"/>
</g>
<g style="mix-blend-mode:multiply">
<path d="M25.342 257.116C25.1954 257.116 25.0781 256.999 25.0781 256.881C25.0781 256.735 25.1954 256.617 25.342 256.617L42.7902 256.529C42.9368 256.529 43.0541 256.647 43.0541 256.793C43.0541 256.94 42.9368 257.058 42.7902 257.058L25.342 257.116Z" fill="#D4D4D4"/>
</g>
<path d="M99.4162 151.257C99.4162 151.257 102.29 160.801 102.114 169.228C101.938 177.656 98.0966 189.225 98.0966 190.459C97.9206 193.953 95.0175 195.803 92.9354 195.539C90.824 195.275 89.4751 195.01 89.2405 195.48C88.9766 196.244 87.569 197.359 86.9239 197.213C86.1321 197.682 85.6043 197.418 85.6043 197.418C85.0471 197.8 84.5192 197.242 84.5192 197.242C84.5192 197.242 84.5192 195.451 84.6952 195.098C84.8711 194.746 85.2524 193.601 85.2524 193.601C85.2524 193.601 84.3433 194.423 84.2846 194.863C84.2553 195.304 84.3726 196.713 83.7861 196.86C83.3463 195.539 83.4636 194.394 83.5222 193.777C83.5515 193.16 84.9591 190.958 86.1321 190.752C87.3051 190.547 92.085 190.635 92.4369 190.194C92.7888 189.754 91.3519 168.523 90.9413 166.556C90.5601 164.589 86.6306 153.254 86.6306 153.254L99.4162 151.257Z" fill="#FF8762"/>
<g style="mix-blend-mode:multiply">
<path d="M85.5457 193.16C85.5653 193.16 85.5946 193.141 85.6337 193.102L86.3082 192.338C86.3668 192.309 86.3668 192.221 86.3082 192.162C86.2495 192.132 86.1909 192.133 86.1322 192.191L85.4284 192.925C85.3991 192.984 85.3991 193.072 85.4578 193.102C85.4773 193.141 85.5066 193.16 85.5457 193.16Z" fill="#E0B3A8"/>
</g>
<g style="mix-blend-mode:multiply">
<path d="M85.7507 196.831C85.7507 196.831 86.0146 195.186 86.044 194.981C86.0733 194.863 86.5718 194.1 87.041 193.454C87.0996 193.395 87.0703 193.307 87.0117 193.278C86.953 193.248 86.8944 193.248 86.8357 193.307C86.5425 193.718 85.8387 194.746 85.8094 194.952C85.78 195.128 85.5161 196.772 85.5161 196.772L85.7507 196.831Z" fill="#E0B3A8"/>
</g>
<g style="mix-blend-mode:multiply">
<path d="M86.953 196.713C87.0117 196.713 87.041 196.655 87.0703 196.625C87.0703 196.596 87.3929 195.627 87.4515 195.48C87.5102 195.363 88.0087 194.717 88.4779 194.159C88.5366 194.1 88.5366 194.012 88.4779 193.983C88.4193 193.924 88.3313 193.953 88.302 193.983C88.0674 194.276 87.3049 195.216 87.2169 195.363C87.1583 195.539 86.8357 196.479 86.8357 196.537C86.8064 196.596 86.8357 196.684 86.8944 196.684C86.9139 196.704 86.9335 196.713 86.953 196.713Z" fill="#E0B3A8"/>
</g>
<path d="M87.6862 130.056C81.2055 134.725 81.9972 144.679 85.2523 152.608C88.5073 160.507 91.1465 168.641 91.1465 184.087C97.422 185.291 99.856 184.498 99.856 184.498C99.856 184.498 104.724 170.461 101.879 156.66C99.0349 142.859 92.9647 130.056 87.6862 130.056Z" fill="#D1E0FF"/>
<path d="M662.831 323.921L663.564 330.029C662.156 333.288 662.508 337.546 662.508 337.546L687.317 338.662C684.854 333.523 673.241 332.642 672.127 330.175C671.012 327.709 670.778 320.544 670.778 320.544L662.831 323.921Z" fill="#FF8762"/>
<path d="M668.109 330.557C668.109 329.676 668.872 326.564 671.159 325.741C671.364 327.474 671.687 329.177 672.127 330.175C673.241 332.642 684.854 333.523 687.317 338.662L662.508 337.546C662.508 337.546 662.156 333.288 663.564 330.029C663.564 330.029 667.963 332.114 668.109 330.557Z" fill="#2B1710"/>
<path d="M686.672 337.663C686.926 337.977 687.141 338.309 687.317 338.662L662.508 337.546C662.508 337.546 662.479 337.164 662.479 336.548L686.672 337.663Z" fill="#693E2F"/>
<path d="M670.25 331.291C670.309 331.291 670.367 331.262 670.397 331.203C670.397 331.174 670.807 330.175 671.54 329.911C671.853 329.794 672.176 329.813 672.508 329.97C672.567 329.999 672.654 329.97 672.684 329.882C672.742 329.823 672.713 329.735 672.625 329.706C672.215 329.51 671.824 329.49 671.452 329.647C670.602 329.97 670.133 331.027 670.133 331.086C670.103 331.144 670.133 331.233 670.221 331.262C670.221 331.282 670.23 331.291 670.25 331.291Z" fill="#693E2F"/>
<path d="M672.538 333.024C672.596 333.024 672.626 332.994 672.655 332.936C672.655 332.936 673.095 331.937 673.828 331.644C674.121 331.526 674.434 331.546 674.766 331.702C674.854 331.761 674.942 331.732 674.971 331.644C675.001 331.585 674.971 331.497 674.913 331.467C674.502 331.272 674.101 331.242 673.71 331.379C672.86 331.732 672.42 332.789 672.391 332.848C672.362 332.906 672.391 332.994 672.479 333.024C672.498 333.024 672.518 333.024 672.538 333.024Z" fill="#693E2F"/>
<path d="M676.32 334.286C676.379 334.286 676.438 334.257 676.467 334.198C676.467 334.198 676.877 333.2 677.61 332.906C677.923 332.789 678.246 332.818 678.578 332.994C678.637 333.024 678.725 332.994 678.754 332.906C678.784 332.848 678.754 332.76 678.695 332.73C678.285 332.534 677.894 332.505 677.523 332.642C676.643 332.994 676.203 334.052 676.203 334.11C676.174 334.169 676.203 334.257 676.262 334.286C676.281 334.286 676.301 334.286 676.32 334.286Z" fill="#693E2F"/>
<path d="M625.061 217.504C631.336 219.706 652.215 232.274 663.241 211.396L667.347 215.331L666.584 216.828C666.584 227.899 660.221 242.875 623.477 242.581C614.269 229.249 625.061 217.504 625.061 217.504Z" fill="#D1E0FF"/>
<path d="M632.421 248.777C649.899 236.561 662.391 238.793 671.687 245.253C680.954 251.713 683.974 268.657 671.071 288.448L669.253 290.886C669.253 290.886 658.579 284.425 658.579 283.603C664.62 264.634 660.397 255.149 643.242 265.838C626.116 276.556 623.272 256.97 623.272 256.97C623.272 256.97 623.888 252.33 624.504 251.302C625.09 250.304 632.421 248.777 632.421 248.777Z" fill="#001C70"/>
<path d="M605.941 264.223C605.941 269.361 607.554 276.556 621.278 277.349C638.462 278.376 659.986 287.861 659.576 325.8L673.476 326.006C676.115 306.214 678.725 275.117 638.609 261.815C636.79 256.147 625.911 252.124 625.911 252.124H614.21L605.941 264.223Z" fill="#00248F"/>
<path d="M625.061 217.504C619.342 215.096 616.146 214.626 611.454 215.008C606.791 215.389 601.865 218.942 599.9 228.633C598.199 237.031 596.645 256.059 605.091 260.846C606.176 261.462 605.413 262.725 606 263.254C622.949 257.968 632.421 248.777 632.421 248.777C631.453 248.894 631.512 248.043 631.189 247.455C633.154 243.697 629.635 242.287 628.873 235.856C628.11 229.661 629.195 221.233 625.061 217.504Z" fill="white"/>
<path d="M617.436 194.423C616.234 194.394 615.912 195.245 615.912 195.245C614.709 194.041 614.064 195.216 614.709 195.979C613.272 195.656 614.328 196.948 614.416 197.007C613.126 198.123 613.214 205.611 613.214 205.611L621.806 206.815C621.806 206.815 625.882 203.555 625.97 203.585C627.788 202.821 628.492 200.795 627.612 199.268C629.958 198.211 628.492 192.984 623.976 193.395C624.005 191.369 617.906 189.783 617.436 194.423Z" fill="#2B1710"/>
<path d="M613.536 207.49L614.152 203.673C614.152 203.673 614.68 203.408 615.032 202.263C616.645 202.616 618.345 200.913 617.26 197.359C617.759 197.594 618.903 197.359 619.137 195.95C618.961 199.092 622.363 201.735 626.732 199.62C626.732 199.62 625.911 207.343 625.295 209.957C624.68 212.541 622.832 213.451 621.043 213.774C621.043 213.774 620.31 216.417 620.427 216.828C618.287 218.502 614.299 216.887 611.923 214.978C612.158 214.773 613.39 211.073 613.536 207.49Z" fill="#FF8762"/>
<path d="M622.217 207.784C622.392 208.048 622.715 208.312 623.008 208.312C623.477 208.166 623.624 207.696 623.624 207.431C623.331 207.373 622.422 207.373 622.275 207.255C622.099 207.373 622.099 207.578 622.217 207.784ZM622.275 207.255C622.422 207.373 623.331 207.373 623.624 207.431C623.653 207.314 623.624 207.226 623.624 207.197C623.331 207.167 622.686 207.255 622.539 207.167C622.422 207.187 622.334 207.216 622.275 207.255ZM623.008 208.312C623.086 208.332 623.165 208.332 623.243 208.312C623.741 208.136 623.859 207.725 623.829 207.461C623.8 207.431 623.712 207.431 623.624 207.431C623.624 207.696 623.477 208.166 623.008 208.312ZM623.624 207.431C623.712 207.431 623.8 207.431 623.829 207.461C623.8 207.373 623.771 207.285 623.741 207.255C623.722 207.216 623.683 207.197 623.624 207.197C623.624 207.226 623.653 207.314 623.624 207.431Z" fill="url(#paint6_linear_138_1094)"/>
<path d="M614.592 206.727C614.269 207.637 613.272 208.078 612.393 207.725C611.484 207.402 611.044 206.404 611.396 205.523C611.747 204.612 612.715 204.172 613.595 204.524C614.504 204.847 614.944 205.846 614.592 206.727Z" fill="#FF8762"/>
<path d="M623.624 209.105C623.184 210.72 620.955 213.128 618.668 208.812C619.988 209.281 621.923 209.722 623.624 209.105Z" fill="#521A14"/>
<path d="M623.536 209.105C623.155 209.927 621.366 210.926 619.02 208.988C620.809 209.399 622.539 209.575 623.536 209.105Z" fill="white"/>
<g style="mix-blend-mode:multiply">
<path d="M619.137 205.963C618.727 205.816 618.375 205.464 618.346 204.965C618.346 204.906 618.375 204.877 618.434 204.877C618.463 204.877 618.492 204.906 618.492 204.965C618.551 205.523 619.049 205.875 619.519 205.905C619.548 205.905 619.577 205.934 619.577 205.993C619.577 206.022 619.548 206.051 619.519 206.051C619.382 206.051 619.255 206.022 619.137 205.963Z" fill="#E0B3A8"/>
</g>
<path d="M617.055 202.381C616.997 202.351 616.997 202.293 617.026 202.263C617.818 201.206 619.548 201.001 620.574 201.441C620.633 201.47 620.633 201.529 620.633 201.559C620.604 201.588 620.574 201.617 620.516 201.588C619.519 201.147 617.906 201.353 617.143 202.351C617.114 202.381 617.085 202.41 617.055 202.381Z" fill="#2B1710"/>
<path d="M625.852 203.35C625.833 203.35 625.823 203.34 625.823 203.32C625.589 202.645 624.65 202.205 623.917 202.41C623.888 202.41 623.829 202.381 623.829 202.351C623.829 202.322 623.858 202.263 623.888 202.263C624.68 202.028 625.706 202.528 625.97 203.262C625.97 203.291 625.94 203.35 625.911 203.35C625.892 203.35 625.872 203.35 625.852 203.35Z" fill="#2B1710"/>
<path d="M623.243 208.342C623.223 208.342 623.213 208.332 623.213 208.312C623.184 208.254 623.213 208.224 623.243 208.195C623.536 208.107 623.653 207.872 623.712 207.696C623.771 207.49 623.712 207.343 623.712 207.314C623.653 207.255 623.272 207.285 623.038 207.285C622.881 207.285 622.744 207.285 622.627 207.285C622.549 207.265 622.48 207.187 622.422 207.05C622.216 206.521 622.216 204.524 623.507 203.203C623.536 203.174 623.595 203.174 623.624 203.203C623.653 203.232 623.653 203.291 623.624 203.32C622.451 204.524 622.334 206.433 622.568 207.02C622.598 207.108 622.627 207.138 622.656 207.138C622.754 207.138 622.881 207.138 623.038 207.138C623.448 207.108 623.741 207.108 623.829 207.226C623.888 207.314 623.917 207.549 623.859 207.725C623.8 207.901 623.683 208.195 623.301 208.342C623.282 208.342 623.262 208.342 623.243 208.342Z" fill="#2B1710"/>
<path d="M619.079 209.017C618.903 208.958 618.736 208.89 618.58 208.812C618.551 208.782 618.551 208.753 618.551 208.694C618.58 208.665 618.609 208.665 618.668 208.665C620.369 209.575 623.125 209.458 623.741 208.9C623.771 208.87 623.829 208.87 623.859 208.9C623.888 208.929 623.888 208.988 623.859 209.017C623.243 209.546 620.838 209.693 619.079 209.017Z" fill="#2B1710"/>
<g style="mix-blend-mode:multiply">
<path d="M613.39 207.197C612.833 206.991 612.715 206.668 612.686 206.521C612.657 206.316 612.774 206.11 612.979 205.993C613.155 205.875 613.448 205.816 613.771 205.963C613.624 205.405 613.214 205.053 612.833 204.965C612.481 204.877 612.158 204.965 611.953 205.229C611.923 205.288 611.865 205.288 611.835 205.258C611.806 205.229 611.806 205.17 611.835 205.141C612.099 204.818 612.451 204.701 612.862 204.818C613.419 204.965 613.859 205.464 613.976 206.11C613.976 206.13 613.957 206.149 613.918 206.169C613.898 206.188 613.878 206.188 613.859 206.169C613.536 205.963 613.214 205.993 613.038 206.11C612.891 206.198 612.833 206.345 612.833 206.492C612.862 206.756 613.155 206.962 613.595 207.108C613.624 207.108 613.654 207.167 613.624 207.197C613.624 207.226 613.595 207.255 613.536 207.255C613.497 207.236 613.448 207.216 613.39 207.197Z" fill="#E0B3A8"/>
</g>
<g style="mix-blend-mode:multiply">
<path d="M620.164 211.836C620.105 211.817 620.056 211.797 620.017 211.777C619.988 211.748 619.958 211.719 619.988 211.66C619.988 211.631 620.046 211.631 620.076 211.631C621.161 212.1 622.275 211.836 622.275 211.836C622.334 211.807 622.363 211.836 622.363 211.866C622.392 211.924 622.363 211.954 622.334 211.983C622.275 211.983 621.249 212.247 620.164 211.836Z" fill="#E0B3A8"/>
</g>
<g style="mix-blend-mode:multiply">
<path d="M618.14 213.422C615.56 212.453 614.533 210.016 614.445 207.931C614.445 207.872 614.475 207.843 614.533 207.843C614.563 207.843 614.592 207.872 614.592 207.901C614.68 210.544 616.322 213.627 620.603 213.745C620.633 213.745 620.662 213.774 620.662 213.804C620.662 213.862 620.633 213.892 620.574 213.892C619.665 213.862 618.844 213.716 618.14 213.422Z" fill="#E0B3A8"/>
</g>
<path d="M619.988 204.701C619.9 205.229 619.577 205.611 619.284 205.582C618.991 205.523 618.815 205.053 618.903 204.524C618.991 203.996 619.284 203.585 619.577 203.643C619.9 203.673 620.046 204.143 619.988 204.701Z" fill="#2B1710"/>
<g style="mix-blend-mode:multiply">
<path d="M623.771 206.639C623.39 206.462 623.038 206.11 623.008 205.611C623.008 205.581 623.038 205.552 623.067 205.552C623.096 205.552 623.155 205.581 623.155 205.611C623.184 206.198 623.712 206.521 624.152 206.551C624.211 206.551 624.24 206.609 624.24 206.639C624.24 206.668 624.181 206.727 624.152 206.697C624.035 206.697 623.908 206.678 623.771 206.639Z" fill="#E0B3A8"/>
</g>
<path d="M624.621 205.347C624.533 205.875 624.21 206.286 623.917 206.228C623.624 206.198 623.448 205.699 623.536 205.17C623.624 204.642 623.946 204.26 624.24 204.289C624.533 204.348 624.709 204.818 624.621 205.347Z" fill="#2B1710"/>
<path d="M620.017 210.632C621.19 211.689 622.246 211.219 622.92 210.397C621.777 210.309 620.633 210.485 620.017 210.632Z" fill="white"/>
<g style="mix-blend-mode:multiply">
<path d="M617.143 206.815C617.055 206.844 616.82 206.521 616.615 206.051C616.439 205.611 616.322 205.2 616.38 205.17C616.468 205.141 616.703 205.464 616.908 205.934C617.084 206.404 617.202 206.785 617.143 206.815Z" fill="#F7D5CD"/>
</g>
<g style="mix-blend-mode:multiply">
<path d="M617.847 207.226C617.788 207.255 617.554 206.903 617.349 206.433C617.143 205.993 617.055 205.581 617.114 205.552C617.202 205.523 617.407 205.875 617.613 206.316C617.818 206.785 617.935 207.167 617.847 207.226Z" fill="#F7D5CD"/>
</g>
<g style="mix-blend-mode:multiply">
<path d="M618.697 207.52C618.609 207.578 618.404 207.226 618.199 206.756C617.993 206.316 617.876 205.904 617.964 205.875C618.023 205.846 618.257 206.198 618.463 206.639C618.668 207.108 618.756 207.49 618.697 207.52Z" fill="#F7D5CD"/>
</g>
<path d="M604.533 218.59C611.806 222.026 609.372 232.92 602.715 242.816C596.059 252.712 603.742 271.505 603.742 271.505L597.085 274.118L596.469 272.298C585.179 258.585 583.566 230.101 604.533 218.59Z" fill="#D1E0FF"/>
<path d="M594.651 275.499C596.147 271.916 603.478 268.862 606.293 273.561C606.088 273.825 604.182 274.559 604.182 274.559C604.182 274.559 605.267 282.341 603.009 283.221C602.041 284.69 600.369 283.691 600.369 283.691C599.02 284.161 597.408 281.019 597.408 281.019C597.408 281.019 598.258 282.957 597.261 283.133C596.293 283.28 594.211 277.995 594.651 275.499Z" fill="#FF8762"/>
<g style="mix-blend-mode:multiply">
<path d="M601.718 280.96C601.337 279.257 600.897 276.585 601.396 274.618C601.425 274.559 601.454 274.53 601.513 274.559C601.572 274.559 601.572 274.618 601.572 274.647C600.751 277.76 602.334 282.575 602.364 282.634C602.364 282.693 602.364 282.722 602.305 282.752C602.276 282.752 602.217 282.722 602.188 282.693C602.188 282.664 601.982 281.988 601.718 280.96Z" fill="#E0B3A8"/>
</g>
<g style="mix-blend-mode:multiply">
<path d="M597.877 277.642C597.877 277.623 597.877 277.613 597.877 277.613C597.877 277.583 597.906 277.525 597.936 277.525C597.994 277.495 598.024 277.525 598.053 277.583C598.053 277.613 598.727 280.549 600.34 283.339C600.34 283.368 600.34 283.427 600.282 283.456C600.252 283.486 600.194 283.456 600.164 283.427C598.639 280.755 597.965 277.965 597.877 277.642Z" fill="#E0B3A8"/>
</g>
<g style="mix-blend-mode:multiply">
<path d="M596.645 279.198C596.586 279.052 596.586 278.964 596.586 278.934C596.586 278.905 596.616 278.846 596.645 278.846C596.704 278.846 596.733 278.875 596.762 278.934C596.762 278.934 596.88 279.756 597.378 280.696C597.408 280.755 597.378 280.814 597.349 280.814C597.29 280.843 597.232 280.814 597.232 280.784C596.88 280.109 596.704 279.522 596.645 279.198Z" fill="#E0B3A8"/>
</g>
<path d="M667.347 215.331C671.159 213.363 669.663 208.812 670.074 206.286C670.455 203.761 671.188 203.379 670.66 202.616C670.074 201.794 668.138 203.673 667.845 204.759C667.552 205.875 667.464 206.11 667.053 206.11C666.643 206.11 666.848 199.209 666.848 199.209C663.505 202.851 663.241 211.396 663.241 211.396L667.347 215.331Z" fill="#FF8762"/>
<path d="M632.421 248.777C632.098 248.454 631.659 248.395 631.248 247.367C631.248 247.367 618.228 258.585 605.501 262.079C605.706 263.283 605.941 264.223 605.941 264.223C618.14 260.258 628.11 253.358 632.421 248.777Z" fill="#2B1710"/>
<path d="M624.328 255.854L623.595 256.412L621.659 253.857L622.392 253.328L624.328 255.854Z" fill="#00248F"/>
<path d="M608.786 263.782L607.935 264.164L606.645 261.257L607.466 260.875L608.786 263.782Z" fill="#00248F"/>
<g style="mix-blend-mode:multiply">
<path d="M618.258 269.714C618.277 269.714 618.297 269.704 618.316 269.684C621.219 267.276 621.278 263.488 618.463 260.053C618.434 259.994 618.346 259.994 618.316 260.023C618.258 260.082 618.258 260.141 618.287 260.2C621.014 263.547 620.955 267.188 618.17 269.508C618.14 269.538 618.111 269.626 618.17 269.684C618.189 269.704 618.218 269.714 618.258 269.714Z" fill="#BFBFBF"/>
</g>
<g style="mix-blend-mode:multiply">
<path d="M666.174 322.1C666.232 322.1 666.291 322.041 666.291 321.983C666.32 321.807 668.138 304.393 657.904 289.828C648.051 275.763 634.181 273.326 625.882 271.887C625.471 271.808 625.08 271.74 624.709 271.681C616.762 270.242 614.797 268.95 611.571 262.989C611.542 262.931 611.454 262.901 611.395 262.931C611.337 262.96 611.337 263.048 611.366 263.107C614.592 269.068 616.703 270.477 624.65 271.916C625.041 271.975 625.442 272.043 625.852 272.122C634.093 273.561 647.904 275.998 657.728 289.946C667.875 304.452 666.086 321.777 666.056 321.953C666.056 322.012 666.115 322.071 666.174 322.071C666.174 322.09 666.174 322.1 666.174 322.1Z" fill="#BFBFBF"/>
</g>
<g style="mix-blend-mode:multiply">
<path d="M673.329 322.805C673.417 322.805 673.447 322.776 673.447 322.687C673.476 322.629 673.417 322.57 673.359 322.57L660.485 322.218C660.426 322.218 660.368 322.276 660.368 322.335C660.368 322.394 660.426 322.453 660.485 322.453L673.329 322.805Z" fill="#BFBFBF"/>
</g>
<g style="mix-blend-mode:multiply">
<path d="M617.231 222.525C617.231 222.525 617.241 222.515 617.26 222.496C617.299 222.496 617.319 222.476 617.319 222.437L619.313 218.091L623.653 221.761C623.682 221.791 623.77 221.791 623.8 221.732C623.858 221.703 623.829 221.615 623.8 221.585L619.372 217.797C619.332 217.778 619.293 217.778 619.254 217.797C619.215 217.797 619.186 217.817 619.166 217.856L617.172 222.231C616.351 221.761 611.366 218.737 610.105 216.211C610.076 216.153 610.017 216.123 609.958 216.153C609.9 216.182 609.87 216.241 609.9 216.3C611.307 219.119 616.938 222.349 617.172 222.496C617.192 222.515 617.211 222.525 617.231 222.525Z" fill="#BFBFBF"/>
</g>
<path d="M619.313 218.091L621.923 220.293C622.187 221.35 621.923 224.727 621.923 224.727C621.923 224.727 620.31 224.492 619.401 224.903C617.993 223.318 617.759 221.497 617.759 221.497L619.313 218.091Z" fill="#3D79BF"/>
<path d="M621.923 224.727C624.592 226.841 623.947 236.502 623.771 240.408C623.595 244.313 630.046 247.367 630.046 247.367L633.682 254.444C633.682 254.444 621.601 253.622 621.307 253.446C617.055 246.428 619.313 240.144 619.782 235.475C620.222 230.835 619.401 224.903 619.401 224.903C621.131 224.463 621.923 224.727 621.923 224.727Z" fill="#4C8AD4"/>
<path d="M590.575 87.0954H130.412C124.694 87.0954 120.09 82.4852 120.09 76.7591C120.09 71.0623 124.694 66.4521 130.412 66.4521H590.575C596.264 66.4521 600.897 71.0623 600.897 76.7591C600.897 82.4852 596.264 87.0954 590.575 87.0954Z" fill="#809CFF"/>
<path d="M590.311 83.0431H157.127V70.5044H590.311V83.0431Z" fill="white"/>
<path fill-rule="evenodd" clip-rule="evenodd" d="M139.884 76.7884L144.077 80.9876L142.054 83.0431L137.802 78.7852C136.306 79.4312 134.488 79.1376 133.286 77.9043C131.673 76.3186 131.673 73.7051 133.286 72.0901C134.869 70.5044 137.479 70.5044 139.092 72.0901C140.353 73.3528 140.617 75.2615 139.884 76.7884ZM139.532 77.4051C139.395 77.5813 139.248 77.7477 139.092 77.9043C138.877 78.1196 138.652 78.3056 138.418 78.4622L142.054 82.074L143.139 80.9876L139.532 77.4051ZM138.623 72.5893C137.274 71.2679 135.104 71.2679 133.755 72.5893C132.406 73.94 132.406 76.113 133.755 77.4638C135.104 78.7852 137.274 78.7852 138.623 77.4638C139.943 76.113 139.943 73.94 138.623 72.5893Z" fill="white"/>
<g style="mix-blend-mode:multiply">
<path d="M453.189 154.663H301.199C297.592 154.663 294.689 151.756 294.689 148.144V112.114C294.689 108.531 297.592 105.595 301.199 105.595H453.189C456.796 105.595 459.699 108.531 459.699 112.114V148.144C459.699 151.756 456.796 154.663 453.189 154.663Z" fill="#D1D1D1"/>
</g>
<path d="M457.177 149.994H305.187C301.61 149.994 298.677 147.087 298.677 143.475V107.445C298.677 103.863 301.61 100.926 305.187 100.926H457.177C460.784 100.926 463.687 103.863 463.687 107.445V143.475C463.687 147.087 460.784 149.994 457.177 149.994Z" fill="#DBF3FF"/>
<path d="M314.337 115.168C314.337 116.636 313.134 117.84 311.668 117.84C310.173 117.84 309 116.636 309 115.168C309 113.7 310.173 112.496 311.668 112.496C313.134 112.496 314.337 113.7 314.337 115.168Z" fill="white"/>
<path d="M331.785 115.168C331.785 116.636 330.583 117.84 329.116 117.84C327.65 117.84 326.448 116.636 326.448 115.168C326.448 113.7 327.65 112.496 329.116 112.496C330.583 112.496 331.785 113.7 331.785 115.168Z" fill="white"/>
<path d="M314.337 132.669C314.337 134.137 313.134 135.341 311.668 135.341C310.173 135.341 309 134.137 309 132.669C309 131.172 310.173 129.997 311.668 129.997C313.134 129.997 314.337 131.172 314.337 132.669Z" fill="white"/>
<path d="M331.785 132.669C331.785 134.137 330.583 135.341 329.116 135.341C327.65 135.341 326.448 134.137 326.448 132.669C326.448 131.172 327.65 129.997 329.116 129.997C330.583 129.997 331.785 131.172 331.785 132.669Z" fill="white"/>
<path d="M427.647 122.186H354.834C354.248 122.186 353.749 121.687 353.749 121.1V115.256C353.749 114.669 354.248 114.169 354.834 114.169H427.647C428.263 114.169 428.761 114.669 428.761 115.256V121.1C428.761 121.687 428.263 122.186 427.647 122.186Z" fill="white"/>
<path d="M449.113 135.4H354.834C354.248 135.4 353.749 134.901 353.749 134.314V128.499C353.749 127.883 354.248 127.384 354.834 127.384H449.113C449.699 127.384 450.198 127.883 450.198 128.499V134.314C450.198 134.901 449.699 135.4 449.113 135.4Z" fill="white"/>
<defs>
<linearGradient id="paint0_linear_138_1094" x1="nan" y1="nan" x2="nan" y2="nan" gradientUnits="userSpaceOnUse">
<stop stop-color="#A2D0F5"/>
<stop offset="1" stop-color="#A2D0F5"/>
</linearGradient>
<linearGradient id="paint1_linear_138_1094" x1="nan" y1="nan" x2="nan" y2="nan" gradientUnits="userSpaceOnUse">
<stop stop-color="#B4DBFA"/>
<stop offset="1" stop-color="#B4DBFA"/>
</linearGradient>
<linearGradient id="paint2_linear_138_1094" x1="nan" y1="nan" x2="nan" y2="nan" gradientUnits="userSpaceOnUse">
<stop stop-color="#A2D0F5"/>
<stop offset="1" stop-color="#A2D0F5"/>
</linearGradient>
<linearGradient id="paint3_linear_138_1094" x1="nan" y1="nan" x2="nan" y2="nan" gradientUnits="userSpaceOnUse">
<stop stop-color="#B4DBFA"/>
<stop offset="1" stop-color="#B4DBFA"/>
</linearGradient>
<linearGradient id="paint4_linear_138_1094" x1="125.101" y1="367.832" x2="65.9024" y2="307.487" gradientUnits="userSpaceOnUse">
<stop stop-color="#DBF3FF"/>
<stop offset="1" stop-color="white"/>
</linearGradient>
<linearGradient id="paint5_linear_138_1094" x1="68.5908" y1="116.168" x2="67.4607" y2="114.845" gradientUnits="userSpaceOnUse">
<stop stop-color="#FF8762"/>
<stop offset="1" stop-color="#FF5C47"/>
</linearGradient>
<linearGradient id="paint6_linear_138_1094" x1="622.265" y1="207.797" x2="623.621" y2="207.441" gradientUnits="userSpaceOnUse">
<stop stop-color="#FF8762"/>
<stop offset="1" stop-color="#FF5C47"/>
</linearGradient>
</defs>
</svg>
