<?xml version="1.0" ?>
<!-- Uploaded to: SVG Repo, www.svgrepo.com, Generator: SVG Repo Mixer Tools -->
<svg width="800px" height="800px" viewBox="0 0 64 64" xmlns="http://www.w3.org/2000/svg">
<defs>
<style>.cls-1{fill:#eff3fe;}.cls-2{fill:#bcc2d7;}.cls-3{fill:#194568;}.cls-4{fill:#76cce0;}.cls-5{fill:#1e5366;}</style>
</defs>
<g id="main">
<path class="cls-1" d="M63,18V48a1,1,0,0,1-.62.92l-24,10A1,1,0,0,1,38,59H4a3,3,0,0,1-3-3V18a1,1,0,0,1,1-1H62A1,1,0,0,1,63,18Z"/>
<path class="cls-2" d="M63,47.36V48a1,1,0,0,1-.62.92L39.05,58.64l-.67.28A1,1,0,0,1,38,59H35.78L54.31,41.28a1,1,0,0,1,1.33-.05Z"/>
<path class="cls-3" d="M21.64,32H19a1,1,0,0,0-1,1V43a1,1,0,0,0,1,1h0l2.72,0c2.76-.05,4.76-2.52,4.76-5.88S24.62,32.2,21.64,32Zm.06,10L20,42V34h1.57c2.16.14,2.93,2.2,2.93,4.07S23.62,41.92,21.7,42Z"/>
<path class="cls-3" d="M41.14,32H38.5a1,1,0,0,0-1,1V43a1,1,0,0,0,1,1h0l2.72,0C44,43.9,46,41.43,46,38.07S44.12,32.2,41.14,32Zm.06,10-1.7,0V34h1.57c2.16.14,2.93,2.2,2.93,4.07S43.12,41.92,41.2,42Z"/>
<path class="cls-3" d="M32.74,32.79A1.21,1.21,0,0,0,31.61,32h0a1.21,1.21,0,0,0-1.14.81L27,42.67a1,1,0,0,0,1.89.66l.65-1.83h4.14l.64,1.83a1,1,0,0,0,1.88-.66ZM30.23,39.5l1.38-3.89L33,39.5Z"/>
<path class="cls-4" d="M60,9H4a3,3,0,0,0-3,3v7H63V12A3,3,0,0,0,60,9Z"/>
<path class="cls-5" d="M12,14a1,1,0,0,1-1-1V6a1,1,0,0,1,2,0v7A1,1,0,0,1,12,14Z"/>
<path class="cls-5" d="M32,14a1,1,0,0,1-1-1V6a1,1,0,0,1,2,0v7A1,1,0,0,1,32,14Z"/>
<path class="cls-5" d="M52,14a1,1,0,0,1-1-1V6a1,1,0,0,1,2,0v7A1,1,0,0,1,52,14Z"/>
<path class="cls-2" d="M40,24H8a1,1,0,0,1,0-2H40a1,1,0,0,1,0,2Z"/>
<path class="cls-2" d="M56,24H44a1,1,0,0,1,0-2H56a1,1,0,0,1,0,2Z"/>
</g>
</svg>